<svg xmlns="http://www.w3.org/2000/svg" viewBox="0 0 240 120" width="100%" height="100%">
    <g stroke="#181818" stroke-width="4" stroke-linejoin="round" stroke-linecap="round">
        <!-- 7 Accent Yellow Sectors (7/8ths of the whole, radius 52, center 120 60) -->
        <path fill="#ffd84d" d="M 120 60 L 172 60 A 52 52 0 0 1 156.77 96.77 Z" />
        <path fill="#ffd84d" d="M 120 60 L 156.77 96.77 A 52 52 0 0 1 120 112 Z" />
        <path fill="#ffd84d" d="M 120 60 L 120 112 A 52 52 0 0 1 83.23 96.77 Z" />
        <path fill="#ffd84d" d="M 120 60 L 83.23 96.77 A 52 52 0 0 1 68 60 Z" />
        <path fill="#ffd84d" d="M 120 60 L 68 60 A 52 52 0 0 1 83.23 23.23 Z" />
        <path fill="#ffd84d" d="M 120 60 L 83.23 23.23 A 52 52 0 0 1 120 8 Z" />
        <path fill="#ffd84d" d="M 120 60 L 120 8 A 52 52 0 0 1 156.77 23.23 Z" />
        
        <!-- 1 Soft White Highlight Sector (1/8th of the whole - elegantly offset/pulled out, radius 52) -->
        <path fill="#f5f5f5" d="M 120 60 L 156.77 23.23 A 52 52 0 0 1 172 60 Z" transform="translate(4.6, -1.9)" />
    </g>
</svg>
