<svg xmlns="http://www.w3.org/2000/svg" viewBox="0 0 240 120" width="100%" height="100%">
    <!-- 3x3 Solid Yellow Grid (Goldilocks scale at 78px x 78px, perfectly centered) -->
    <g fill="#ffd84d" stroke="none">
        
        <!-- ROW 1 -->
        <!-- 5 Box -->
        <rect x="81" y="21" width="24" height="24" rx="3.5" />
        <text x="93" y="37.5" fill="#2b2b2b" font-family="system-ui, -apple-system, sans-serif" font-size="11" font-weight="800" text-anchor="middle">5</text>
        
        <!-- 10 Box -->
        <rect x="108" y="21" width="24" height="24" rx="3.5" />
        <text x="120" y="37.5" fill="#2b2b2b" font-family="system-ui, -apple-system, sans-serif" font-size="11" font-weight="800" text-anchor="middle">10</text>
        
        <!-- 15 Box -->
        <rect x="135" y="21" width="24" height="24" rx="3.5" />
        <text x="147" y="37.5" fill="#2b2b2b" font-family="system-ui, -apple-system, sans-serif" font-size="11" font-weight="800" text-anchor="middle">15</text>

        <!-- ROW 2 -->
        <!-- 20 Box -->
        <rect x="81" y="48" width="24" height="24" rx="3.5" />
        <text x="93" y="64.5" fill="#2b2b2b" font-family="system-ui, -apple-system, sans-serif" font-size="11" font-weight="800" text-anchor="middle">20</text>
        
        <!-- 25 Box -->
        <rect x="108" y="48" width="24" height="24" rx="3.5" />
        <text x="120" y="64.5" fill="#2b2b2b" font-family="system-ui, -apple-system, sans-serif" font-size="11" font-weight="800" text-anchor="middle">25</text>
        
        <!-- 30 Box -->
        <rect x="135" y="48" width="24" height="24" rx="3.5" />
        <text x="147" y="64.5" fill="#2b2b2b" font-family="system-ui, -apple-system, sans-serif" font-size="11" font-weight="800" text-anchor="middle">30</text>

        <!-- ROW 3 -->
        <!-- 35 Box -->
        <rect x="81" y="75" width="24" height="24" rx="3.5" />
        <text x="93" y="91.5" fill="#2b2b2b" font-family="system-ui, -apple-system, sans-serif" font-size="11" font-weight="800" text-anchor="middle">35</text>
        
        <!-- 40 Box -->
        <rect x="108" y="75" width="24" height="24" rx="3.5" />
        <text x="120" y="91.5" fill="#2b2b2b" font-family="system-ui, -apple-system, sans-serif" font-size="11" font-weight="800" text-anchor="middle">40</text>
        
        <!-- 45 Box -->
        <rect x="135" y="75" width="24" height="24" rx="3.5" />
        <text x="147" y="91.5" fill="#2b2b2b" font-family="system-ui, -apple-system, sans-serif" font-size="11" font-weight="800" text-anchor="middle">45</text>

    </g>
</svg>
