<svg xmlns="http://www.w3.org/2000/svg" viewBox="0 0 1408 768" preserveAspectRatio="xMidYMid meet"><path d="M0 0h1408v768H0z" fill="#181818"/><path d="M828 535c10.975 9.639 15.19 23.054 16.158 37.329.807 17.717-.896 36.61-12.896 50.714-9.095 8.83-19.45 10.636-31.667 10.485-6.498-.246-11.952-1.114-17.595-4.528l-3.187-1.75C768.07 618.656 763.52 607.27 761 594c-.385-4.116-.431-8.18-.375-12.312l.03-3.304c.294-15.328 2.884-31.19 14.345-42.384 15.94-12.86 36.213-11.582 53-1" fill="#f4c30f"/><path d="m914 530 2.223 1.066c8.715 4.409 15.173 10.776 18.777 19.934 6.563 20.348 6.577 44.643-3 64-5.504 9.141-13.652 15.228-24 18-3.448.428-6.84.478-10.312.438l-2.814-.028c-10.537-.266-18.136-2.632-25.808-10.097-13.768-15.408-14.165-33.395-13.294-53.093 1-14.158 5.942-25.827 16.365-35.603 10.609-9.208 29.44-11.05 41.863-4.617" fill="#f4c310"/><path d="M596.07 220.309c10.788 9.455 14.292 23.97 15.93 37.691.938 17.893-1.25 36.1-12.984 50.422-4.374 4.093-9.4 6.6-15.016 8.578l-1.926.684c-11.645 3.496-23.163 1.31-33.683-4.207C539.008 307.68 532.986 297.436 530 287c-3.255-19.145-3.592-41.843 7.313-58.625 6.818-8.64 13.95-13.4 24.625-16.125 12.43-1.015 23.783.495 34.132 8.059" fill="#f5c30d"/><path d="M826.438 376.813c6.098 5.122 10.607 10.774 13.562 18.187l1.133 2.777c5.274 15.214 4.73 33.943-.133 49.223l-.996 3.156c-3.673 10.066-10.092 18.222-19.848 22.95-10.006 4.15-23.175 4.88-33.336.746L785 473l-3.25-1.437C771.514 465.747 766.121 456.108 763 445l-.533-1.866c-4.842-18.88-2.89-40.178 6.658-57.134 5.008-7.229 12.667-13.25 21.246-15.598 12.387-1.895 25.543-1.01 36.067 6.41" fill="#f4c310"/><path d="m895.75 369.563 2.376.022c12.73.358 21.943 5.062 30.624 14.165 3.641 4.378 5.574 8.843 7.25 14.25l.906 2.754c5.347 18.984 3.22 41.414-6.289 58.73-5.121 7.967-13.12 14.038-22.469 16.164-9.518 1.063-19.312 1.466-28.148-2.648l-3.125-1.312c-10.137-5.95-15.014-14.029-18.187-25.25l-.926-3.63c-.48-2.693-.48-2.693-1.762-3.808-.257-4.306-.185-8.625-.187-12.937l-.038-3.635C855.75 407.032 859.057 392.196 869 380c7.878-7.042 16.228-10.581 26.75-10.437" fill="#f4c30f"/><path d="m801.563 212.688 2.884-.088c10.189-.09 19.185 3.23 26.553 10.4 12.395 15.058 14.361 33.163 13 52-1.527 12.012-5.246 26.518-14.93 34.613-9.772 7.008-19.166 9.248-31.07 8.387l-3.621-.215c-8.377-.802-13.451-2.808-19.379-8.785l-1.703-1.594C768.503 302.467 766.34 296.37 764 290l-.941-2.457c-1.873-5.166-2.756-10.065-3.059-15.543l-.195-2.496C759.218 255.705 761.68 239.285 770 228l1.813-2.477c7.998-9.901 17.49-12.714 29.75-12.835" fill="#f4c310"/><path d="M734.016 378.566c9.516 8.917 13.548 21.516 14.11 34.298.888 37.208.888 37.208-12.126 52.484-8.036 7.903-17.655 11.088-28.75 11.09-11.229-.286-18.605-1.907-27.25-9.438-4.53-4.818-7.806-9.732-10-16l-.988-2.72c-2.796-8.237-3.615-15.55-3.45-24.217l.045-3.723c.324-15.56 2.915-29.862 14.393-41.34 14.962-12.84 38.449-12.531 54.016-.434" fill="#f4c30f"/><path d="m896.313 212.563 2.81.022C909.68 212.84 918.26 215.6 926 223c6.147 7.003 10.378 14.145 11.75 23.375l.366 2.37c2.63 18.51 1.938 40.324-9.303 56.005-5.978 7.198-13.548 11.766-22.813 13.25-11.413.852-23.282.803-32.875-6.187-9.832-8.519-15.182-20.019-17.125-32.813-.268-3.942-.286-7.862-.25-11.812l.02-3.222c.217-16.405 3.318-29.302 14.23-41.966 7.693-7.336 15.915-9.556 26.313-9.437" fill="#f3c210"/><path d="M732.094 219.281c10.379 7.83 13.41 19.678 15.906 31.719l.533 1.968c3.724 16.195-.52 36.768-9.13 50.598C733.296 312.008 725.998 315.68 716 318c-13.16 1.71-24.314.613-35.062-7.57-9.115-8.132-14.318-21.307-15.133-33.305-.71-19.1-.397-39.194 13.195-54.125 13.58-14.382 37.028-13.55 53.094-3.719" fill="#f4c30e"/><path d="M558 371h41v105h-26v-82h-15z" fill="#f6c308"/><path d="M702 529h41v104h-26v-81h-15z" fill="#f5c20a"/><path d="M468 214h41v104h-26v-81h-15z" fill="#f7c407"/><path d="M1103 85c4.806 1.602 8.138 3.782 12 7l3 1v-2c4.188-4.176 8.701-5.394 14.5-5.562 6.481.277 11.244 1.515 16.023 5.988 5.008 5.6 5.771 10.651 5.672 17.937l-.008 2.4c-.011 2.517-.037 5.033-.062 7.55q-.016 2.567-.027 5.134c-.02 4.185-.06 8.368-.098 12.553h-16l-.043-6.824c-.03-2.191-.07-4.382-.11-6.573a390 390 0 0 1-.043-4.554 381 381 0 0 0-.097-6.56l-.048-3.984c-.816-4.342-2.199-5.835-5.659-8.505-3.543-.75-3.543-.75-7 0-2.907 2.219-3.84 3.52-5 7a187 187 0 0 0-.316 6.855l-.063 2.005q-.097 3.164-.184 6.328l-.13 4.294c-.108 3.506-.207 7.012-.307 10.518h-15l-.043-6.824c-.03-2.191-.07-4.382-.11-6.573a390 390 0 0 1-.043-4.554 381 381 0 0 0-.097-6.56l-.048-3.984c-.816-4.34-2.205-5.83-5.659-8.505-3.5-.833-3.5-.833-7 0-3.454 2.675-4.843 4.164-5.66 8.505-.015 1.315-.03 2.629-.047 3.983l-.046 2.131a429 429 0 0 0-.06 6.694q-.034 2.277-.076 4.556c-.062 3.71-.095 7.42-.111 11.131q-3.72.04-7.437.063l-2.143.025c-1.807.009-3.614-.036-5.42-.088-1-1-1-1-1.12-3.018l.006-2.685v-3.034l.016-3.298.005-3.359c.005-3.556.018-7.112.03-10.668l.014-7.213q.018-8.863.049-17.725h16v5l1.652-1.312c5.506-4.066 9.497-5.955 16.348-4.688" fill="#f5f5f5"/><path d="m370 89 2 2 1-5h16q.037 10.654.055 21.307.008 3.628.02 7.255.017 5.201.023 10.403l.015 3.298v3.034l.007 2.685C389 136 389 136 388 137c-2.53.073-5.033.092-7.562.063l-2.155-.014q-2.64-.02-5.283-.049v-5l-1.477 1.094c-6.874 4.5-13.45 5.247-21.523 3.906-6.444-2.91-10.513-8.23-13.078-14.734-2.37-8.395-2.053-18.168 1.68-26.11 3.145-4.85 7.22-8.113 12.398-10.594 7.585-1.422 12.527-.725 19 3.438m255.348-.094L627 90l1-4h16v51h-15l-1-5-3.375 1.938c-6.223 3.572-11.42 3.897-18.625 3.062-5.92-2.18-9.144-5.647-12-11.187-3.636-8.22-4.438-16.942-1.875-25.688C594.565 93.865 598.898 88.89 605 86c7.824-2.268 13.431-1.35 20.348 2.906" fill="#f5f5f4"/><path d="M255 73c37.81 0 37.81 0 46 8 4.283 5.858 3.82 12.022 3 19-1.982 5.91-5.847 9.056-11.133 12.09-3.057 1.49-5.525 2.033-8.879 2.008l-2.069-.008-2.606-.028L271 114v23h-16z" fill="#f7f7f7"/><path d="M855.375 76.875c2.808 2.273 4.232 3.797 5.625 7.125.045 2.333.05 4.667 0 7-2.605.108-5.206.187-7.812.25l-2.237.102c-5.472.099-5.472.099-7.963-2.243C842 87 842 87 842 85c-5.585.199-5.585.199-10 3-.584 2.414-.584 2.414 0 5 3.661 3.566 6.89 4.735 11.813 5.875 7.72 2.047 12.773 5.363 18.187 11.125 1.857 4.559 1.8 9.756.164 14.344-2.84 5.718-6.329 9.058-12.164 11.656-8.092 2.72-19.234 2.058-26.906-1.535-4.92-3.442-7.506-8.269-9.032-13.965L814 118c2.225-2.225 7.282-1.481 10.348-1.541 5.13.103 5.13.103 7.511 2.103a62 62 0 0 1 2.102 3.872L835 124c4.473.694 6.22.52 10-2 .667-2.957.667-2.957 0-6-4.305-3.206-9.314-4.507-14.385-6.018-6.523-2.046-11.894-5.116-15.693-10.865-2.17-4.984-1.933-10.375-.07-15.426 3.119-5.612 7.934-9.324 14.039-11.304 9.603-1.761 18.06-.192 26.484 4.488M524 73h16c3.307 7.036 5.766 14.141 8.063 21.563 2.646 8.58 2.646 8.58 5.683 17.027C555 115 555 115 555 118h2l.422-1.733c2.222-8.722 5.177-17.25 8.022-25.784q1.034-3.109 2.06-6.22l1.316-3.954 1.196-3.6C571 74 571 74 572 73c2.697-.073 5.367-.092 8.063-.062l2.298.013q2.82.02 5.639.049c-.713 4.287-2.077 8.246-3.562 12.313-3.03 8.417-5.857 16.895-8.634 25.4-1.72 5.222-3.58 10.26-5.804 15.287a360 360 0 0 0-2.187 5.938L566 137h-20c-4.096-10.282-7.93-20.554-11.36-31.075-2.287-6.976-4.78-13.86-7.42-20.71l-.837-2.211-.738-1.912c-.811-2.63-1.192-5.377-1.645-8.092" fill="#f4f4f3"/><path d="M488.125 86.973c6.614 3.623 10.43 6.861 13.281 13.976.896 4.602.594 9.363.594 14.051h-35c2.157 6.566 2.157 6.566 4.813 8.438 2.942.756 5.156.933 8.187.562l2.203-2.008c3.566-2.54 6.411-2.45 10.61-2.242l2.1.055c1.696.046 3.392.118 5.087.195-.837 6.834-3.43 9.987-8.578 14.332-6.631 4.227-15.886 3.745-23.422 2.668-3.343-1.106-5.505-2.542-8-5l-1.695-1.61c-5.111-5.382-7.425-10.983-7.618-18.39.327-8.553 2.21-14.751 8.313-21 8.497-6.49 19.071-8.572 29.125-4.027" fill="#f3f3f3"/><path d="M1054 91c2.226 1.92 3.369 3.474 5 6l1.813 2.625C1062 103 1062 103 1062 115h-35c2.288 6.536 2.288 6.536 5 9 4.058.455 4.058.455 8 0l2.273-2.008c3.519-2.57 6.366-2.45 10.54-2.242l2.1.055c1.696.046 3.392.118 5.087.195-.69 5.22-1.983 8.514-6 12-8.365 5.136-17.61 6.706-27.3 4.469-7.409-3.023-11.217-8.029-14.52-15.047-2.652-7.69-2.467-15.486.883-22.922 3.967-6.768 8.975-10.905 16.562-13.02 9.506-1.923 16.246.253 24.375 5.52" fill="#f3f3f2"/><path d="M775.055 86.824c5.854 3.538 12.04 8.443 13.945 15.176v13h-35c2.054 4.821 2.054 4.821 5 9 1.997.277 1.997.277 4.313.313l2.363.113c2.502-.212 2.502-.212 4.101-2.43 3.226-2.897 6.371-2.434 10.473-2.246l2.258.055c1.831.047 3.662.118 5.492.195-2.04 6.767-5.277 11.599-11.312 15.438-7.027 3.125-17.115 3.075-24.356.68-5.8-3.389-10.638-8.984-13.332-15.118-1.252-8.4-1.643-19.118 3.375-26.273 8.632-9.171 20.61-13.23 32.68-7.903" fill="#f4f4f3"/><path d="M866 86h17q2.508 6.404 5 12.813l1.445 3.681 1.367 3.526c.42 1.073.838 2.147 1.27 3.253C893 112 893 112 893 115h2l1.063-3.812c2.545-8.54 5.812-16.848 8.937-25.188h16c-.974 5.846-2.063 10.64-4.875 15.84-2.376 4.563-4.178 9.403-6.125 14.16q-.848 2.03-1.7 4.059c-2.817 6.741-5.535 13.472-7.925 20.379a102.4 102.4 0 0 1-6.36 14.574c-1.137 2.104-1.137 2.104-2.015 4.988h-17c.746-3.73 1.21-5.778 2.848-8.96l1.084-2.18q1.127-2.228 2.273-4.446c2.783-5.635 3.861-10.013 1.912-16.23l-1.242-2.746-1.39-3.149L879 119q-1.444-3.34-2.875-6.687l-1.5-3.497a1523 1523 0 0 1-5.5-13.066l-.94-2.241C866 88.232 866 88.232 866 86" fill="#f5f5f4"/><path d="M680 86h16l.078 6.824q.06 3.286.13 6.573.042 2.277.063 4.554c.022 2.188.068 4.374.12 6.56l.063 3.984c.623 3.998 1.701 5.682 4.546 8.505 2.746.863 5.205.631 8 0 2.969-2.207 3.829-3.486 5-7 .151-2.283.249-4.569.316-6.855l.063-2.005q.098-3.164.183-6.328l.131-4.294c.108-3.506.207-7.012.307-10.518h16q.037 10.654.055 21.307.008 3.628.02 7.255c.013 3.468.018 6.935.023 10.403l.015 3.298v3.034l.007 2.685C731 136 731 136 730 137c-2.353.073-4.708.084-7.062.063l-3.91-.028L716 137l-2-5-1.125 1.375c-4.765 4.13-10.857 4.182-16.898 4.063-4.832-.71-7.796-2.805-10.977-6.438-4.17-6.345-5.153-12.101-5.098-19.61l.005-2.202c.005-2.313.018-4.625.03-6.938q.009-2.357.014-4.715c.01-3.845.03-7.69.049-11.535" fill="#f5f5f5"/><path d="m569.813 235.75 3.144-.078c3.485.376 5.267 1.217 8.043 3.328 1.293 1.727 1.293 1.727 2.188 3.625l.917 1.852c4.835 13.638 4.998 30.312-1.105 43.523-2.15 3.529-3.97 5.657-8 7-4.882.513-8.85.51-13.375-1.5-7.251-6.906-8.647-16.341-8.91-25.947-.122-10.705.097-21.203 7.883-29.346 2.947-2.536 5.423-2.4 9.215-2.457" fill="#1e1d18"/><path d="m896.813 235.75 3.144-.078c4.766.514 7.247 2.35 10.23 6.016 5.976 10.92 5.672 27.422 3.09 39.37-1.687 5.474-3.645 9.498-8.277 12.942-5.543 1.848-10.99 1.856-16.375-.437-6.67-6.512-7.578-14.997-7.828-23.961q-.032-2.99-.047-5.977l-.062-3c-.05-9.487 1.596-16.736 8.312-23.625 2.677-1.338 4.824-1.206 7.813-1.25" fill="#1c1b18"/><path d="M810.313 394.625c5.617 4.965 8.318 10.63 8.894 18.03.098 3.054.115 6.1.106 9.158l.048 3.119c.007 10.123-1.834 18.202-8.361 26.068-2.797 1.399-5.193 1.245-8.312 1.313l-3.426.113c-3.953-.516-5.473-1.627-8.262-4.426-1.328-2-1.328-2-2.25-4l-.953-2c-2.402-6.028-2.056-12.158-2.11-18.562l-.087-3.424c-.064-8.52.827-17.643 6.962-24.139 5.298-4.075 11.886-4.127 17.75-1.25m-8.499-158.875 3.144-.078c4.766.514 7.247 2.35 10.23 6.016 3.884 7.096 4.173 14.14 4.125 22.062l-.017 2.944c-.167 9.89-.782 18.662-7.893 26.099-3.503 3.015-7.291 2.48-11.707 2.41-3.48-.262-5.17-.754-7.695-3.203-5.632-8.448-6.347-18.047-6.312-27.937l-.05-2.803c-.005-7.754.914-15.61 5.924-21.822 3.525-3.525 5.364-3.616 10.25-3.688M808 551c5.035 2.12 6.96 5.056 9.238 9.805 3.833 11.045 3.538 28.054-.183 39.058-1.76 3.567-3.984 6.594-7.055 9.137-4.391 1.464-8.42 1.716-13 1-5.095-2.562-7.715-6.48-9.492-11.777-3.425-14.99-3.666-32.091 4.43-45.41 5.09-3.013 10.314-2.573 16.062-1.813m96 0c4.785 2.13 7.156 6.243 9 11 1.197 6.07 1.258 12.02 1.313 18.188l.087 3.251c.061 7.73-.626 16.209-5.919 22.312-4.404 3.767-7.543 4.597-13.16 4.534-4.407-.541-7.136-3.016-10.071-6.16-6.16-10.471-5.919-27.435-3.566-39.145 1.23-4.466 2.577-8.818 5.754-12.293 5.48-2.595 10.614-2.625 16.562-1.687m-1-158c5.016 2.69 7.978 6.721 10 12 3.144 13.299 3.315 31.09-4 43-2.575 3.057-4.715 3.888-8.742 4.238-8.462.2-8.462.2-12.32-1.925-6.834-8.156-7.279-17.552-7.188-27.875l-.023-2.67c.028-9.695 1.358-17.067 7.836-24.58 3.913-3.233 9.678-2.946 14.437-2.188M713 236c5.302 2.178 7.058 5.35 9.238 10.39 3.346 11.463 4.093 28.978-1.343 39.813-2.17 3.711-4.135 6.57-7.895 8.797-4.63.774-9.619.999-14.012-.844-5.033-3.753-6.465-9.309-7.543-15.176-.694-5.243-.708-10.511-.758-15.793l-.087-3.119c-.066-7.993 1.155-16.158 6.9-22.193 5.165-2.767 9.765-2.694 15.5-1.875" fill="#1d1c18"/><path d="M712 393c5.325 2.71 8.193 5.554 10.057 11.204 1.38 5.558 1.315 10.943 1.314 16.647.004 2.013.04 4.023.078 6.036.028 9.346-1.507 15.308-6.324 23.176-5.309 3.291-11.073 2.836-17.125 1.937-4.218-2.812-6.1-6.343-8-11-1.242-6.227-1.259-12.36-1.312-18.687l-.088-3.397c-.058-7.596.914-14.088 4.4-20.916 5.208-5.208 9.856-5.801 17-5" fill="#1c1b18"/><path d="M962.813 89.875c3.082 2.994 5.138 5.383 5.261 9.785L968 102c-2.27.108-4.541.186-6.812.25l-3.833.14C954 102 954 102 952.344 100L951 98c-2.279-.482-2.279-.482-4.687-.25l-2.45.11L942 98v5l1.833.531c2.772.82 5.531 1.675 8.292 2.531l2.883.834c6.181 1.954 10.814 4.21 13.992 10.104.95 4.756.517 7.946-1.625 12.313-4.402 4.98-8.688 7.501-15.324 7.96-15.394.467-15.394.467-20.57-3.714-6.397-6.735-6.397-6.735-6.606-11.278L925 120a277 277 0 0 1 6.75-.312l3.797-.176c3.453.488 3.453.488 5.648 2.984L943 125c3.368.852 6.866.567 10-1v-4l-3.727-1.172-4.898-1.578-2.45-.766c-5.991-1.948-11.128-3.849-14.8-9.234-1.358-3.922-2.168-7.207-1.125-11.25 3.023-5.122 7.023-8.888 12.766-10.602 8.932-1.592 16.497-.556 24.047 4.477" fill="#f3f3f1"/><path d="M437.234 89.441C442.445 93.54 444.6 97.567 446 104a505 505 0 0 1-8.25.25l-2.355.102c-5.866.1-5.866.1-8.723-2.34L425 100c-3.753-.47-6.038-.531-9.375 1.313-3.49 3.624-2.89 8.29-2.852 13.015.276 3.25 1.09 5.205 3.227 7.672 3.134 1.567 6.632 1.852 10 1l1.742-2.504C430 118 430 118 433.891 117.512q2.181.05 4.359.175l2.258.069c1.831.059 3.662.148 5.492.244-.886 7.001-3.511 11.253-9.059 15.621-7.445 4.432-15.582 4.467-23.941 3.379-3.273-1.148-5.514-2.602-8-5l-1.477-1.422c-5.578-6.068-7.025-12.22-6.898-20.14l-.035-2.21c.041-7.642 3.148-12.727 8.41-18.228 9.758-6.907 22.18-7.044 32.234-.559M980 74h16v12h10v13h-10l1 23 9 1v14c-16.015.453-16.015.453-22.812-5.437-3.457-4.05-3.311-7.423-3.286-12.641l.01-3.516.025-3.656.014-3.703q.018-4.524.049-9.047h-6V86h6z" fill="#f6f6f5"/><path d="M468 214h41v104h-26v-81h-15zm6 3c-2.384 1.94-2.384 1.94-2.195 5.477q.02 2.074.07 4.148l.027 2.14c.024 1.746.06 3.49.098 5.235l2.273-.547c4.174-.694 7.892.313 11.41 2.68 2.048 2.905 1.72 5.484 1.75 9l.03 2.189c.03 2.386.04 4.772.049 7.158l.054 4.965c.048 4.355.077 8.71.104 13.065.03 4.444.076 8.888.121 13.332q.127 13.079.209 26.158h3l-3 3h17l-1-98z" fill="#f3c726"/><path d="M655 69h16v68h-16z" fill="#f4f4f4"/><path d="M312 70h15v67h-15z" fill="#fbfbfb"/><path d="M964 210c7.5.238 12.383 1.921 18 7 5.393 6.557 8.25 12.498 8.252 21.057l.009 2.118c.007 2.336 0 4.671-.006 7.007l.011 5.032q.012 5.417.008 10.832c-.002 5.716.012 11.433.03 17.149q.068 24.382.077 48.763.006 13.47.055 26.937.03 8.511.012 17.023c-.003 3.543.011 7.086.03 10.628a564 564 0 0 1-.005 4.901c-.06 11.99.853 22.79 9.53 31.897 4.558 3.781 10.14 5.9 15.997 6.656v2l-2.344.41c-8.403 1.737-14.164 4.317-18.996 11.613-3.262 6.06-3.784 11.987-3.791 18.82l-.007 2.01q-.007 3.317-.004 6.632l-.01 4.772q-.012 5.13-.017 10.259-.01 8.12-.041 16.24l-.019 5.569-.01 2.816c-.042 12.598-.075 25.195-.087 37.793q-.011 12.758-.07 25.517a2527 2527 0 0 0-.026 13.488q.005 6.348-.037 12.696a507 507 0 0 0 0 4.642c.046 10.976-.9 20.825-8.709 29.188-5.471 4.584-11.758 7.074-18.832 7.535l1-3c1.785-.52 1.785-.52 4.063-.812 6.76-1.303 11.148-4.88 15.312-10.25 2.844-5.142 3.875-8.86 3.883-14.78l.011-2.049c.01-2.257.006-4.514.002-6.772l.016-4.865q.017-5.235.018-10.468c.002-5.523.02-11.045.04-16.568.05-13.719.08-27.439.102-41.158.017-10.659.04-21.317.083-31.975q.032-8.227.028-16.453c.001-3.42.015-6.84.033-10.26q.008-2.37 0-4.74c-.033-11.818.735-22.01 9.409-30.85 2.885-2.211 5.866-4.161 9-6l-2.125-1.687L1001 424l-3.062-2.312c-3.2-2.928-5.16-5.792-6.938-9.688l-.82-1.752c-3.044-7.693-2.59-15.694-2.549-23.824l-.011-5.014q-.013-5.377 0-10.755c.012-5.674 0-11.348-.017-17.022a15673 15673 0 0 1-.04-42.27c.002-10.96-.005-21.919-.04-32.878q-.024-8.453.001-16.904c.006-3.511-.005-7.022-.02-10.533q-.005-2.433.01-4.865c.061-10.162-.649-18.124-6.764-26.495-4.773-4.665-10.408-6.786-16.75-8.688z" fill="#d0d0c5"/><path d="m445 210-1 2c-1.785.422-1.785.422-4.062.75-6.205 1.282-10.632 4.275-14.512 9.281-3.724 5.72-4.55 9.962-4.557 16.816l-.007 2.087q-.007 3.46-.004 6.92l-.01 4.962q-.011 5.347-.017 10.693-.01 8.467-.041 16.936l-.019 5.804-.01 2.936c-.042 13.14-.075 26.281-.087 39.422q-.011 13.298-.07 26.597c-.019 4.687-.031 9.374-.026 14.06q.005 6.626-.037 13.25a551 551 0 0 0 0 4.836c.05 12.302-.595 24.781-9.658 34.06-2.788 2.354-5.609 3.986-8.883 5.59l2.063 1.625L407 431l1.715 1.285c6.222 4.888 10.02 10.862 11.285 18.715.087 2.26.12 4.523.118 6.785l.002 2.029q0 3.354-.01 6.71v4.82q.002 5.188-.002 10.375a5658 5658 0 0 0 .023 19.236l.013 5.678c.028 12.747.048 25.494.031 38.24q-.018 12.906.032 25.81c.017 4.549.024 9.096.004 13.644a1123 1123 0 0 0 .022 12.85q.01 2.347-.012 4.693c-.093 10.5 1.206 19.575 8.252 27.863 4.588 4.165 10.474 6.35 16.527 7.267v1c-6.38.709-10.221-.523-15.598-4.027-6.234-5.12-9.491-11.238-11.402-18.973-.256-3.366-.256-3.366-.265-6.931l-.013-2.004c-.013-2.196-.01-4.392-.01-6.588q-.008-2.373-.02-4.747a3218 3218 0 0 1-.028-10.197c-.006-5.38-.028-10.76-.052-16.14-.049-11.422-.081-22.845-.112-34.268-.033-12.327-.07-24.653-.124-36.98a5081 5081 0 0 1-.044-16.026 3229 3229 0 0 0-.036-9.992 1007 1007 0 0 1-.007-4.614c.006-11.741-.018-21.484-8.289-30.513-4.9-4.541-9.451-6.086-16-7v-3l3.5-.687c8.058-2.08 12.814-5.971 17.273-12.934 2.692-5.22 3.476-9.736 3.465-15.588l.005-2.13c.003-2.344-.008-4.688-.02-7.033l.002-5.057q.001-5.44-.012-10.877c-.012-5.742-.005-11.484.006-17.226.028-16.326.04-32.652.011-48.979q-.025-13.53.018-27.061c.014-4.768.017-9.536-.006-14.304-.023-4.49-.017-8.979.01-13.469q.007-2.46-.018-4.92c-.094-9.982.768-18.307 6.766-26.735 6.198-6.143 12.115-9.423 21-9" fill="#deddd3"/><path d="m631.408 451.886 3.158.016 3.409.01 3.587.025 3.6.014q4.419.018 8.838.049c-.594 3.366-1.432 6.357-2.742 9.512l-1.043 2.549-2.156 5.195a152 152 0 0 0-5.398 15.555c-1.182 3.914-2.931 7.491-4.661 11.189h-17c.515-9.096 1.734-17.833 3.584-26.743a882 882 0 0 0 1.244-6.14c2.255-11.074 2.255-11.074 5.58-11.23" fill="#f3c313"/><path d="M629 295h24c-2.251 10.13-2.251 10.13-3.516 13.508l-.845 2.28-.889 2.337-.922 2.464c-2.83 7.517-5.807 14.97-8.828 22.411h-17c0-5.675.351-9.041 1.813-14.312 1.854-6.92 3.154-13.844 4.235-20.924.862-5.584.862-5.584 1.952-7.764" fill="#f4c30f"/><path d="M558 371h41v105h-26v-82h-15zm2 2v19l6.438.375c3.62.21 3.62.21 6.562.625 1.511 3.022 1.18 6.162 1.205 9.479l.03 2.336q.047 3.831.081 7.662l.063 5.305q.083 6.988.153 13.977.077 7.128.161 14.257.161 13.992.307 27.984h22q.034-19.532.052-39.063.007-9.068.023-18.137.016-8.743.02-17.487.003-3.344.01-6.688.01-4.665.009-9.332l.01-2.822c.408-4.057.408-4.057-1.124-7.471a200 200 0 0 0-7.973-.098l-2.417.005c-2.557.005-5.115.018-7.673.03q-2.595.009-5.189.014c-4.25.01-8.499.03-12.748.049" fill="#cbac39"/><path d="M924 380c9.49 6.621 12.688 17.602 14.67 28.624 2.596 18.718.376 39.948-11.225 55.454-6.994 7.697-15.982 11.574-26.215 12.125-7.52.143-14.293.026-21.23-3.203l-3.125-1.312c-10.137-5.95-15.014-14.029-18.187-25.25l-.926-3.63c-.48-2.693-.48-2.693-1.762-3.808-.257-4.306-.185-8.625-.187-12.937l-.038-3.635c-.014-8.929.854-17.109 3.85-25.553.26-.745.52-1.49.79-2.258L861 393c1.223 4.04.359 5.999-1 10-2.281 14.048-1.756 28.295 2 42h1l.227 1.871c1.271 8.19 4.568 14.385 10.648 20.067 7.136 4.71 14.925 4.346 23.188 4.25l3.181-.002c7.937-.016 7.937-.016 15.756-1.186 2.096-2.727 2.096-2.727 4-6 1.736-1.67 3.545-3.185 5.414-4.703 7.666-6.268 9.1-16.964 10.586-26.297.37-4.069.491-8.103.5-12.187l.018-2.857c-.097-5.407-.908-9.884-2.792-14.949-.957-2.647-1.457-5.297-1.913-8.07-.16-.94-.318-1.879-.481-2.847L931 390h-3l-.875-2.75c-.89-2.572-1.84-4.863-3.125-7.25" fill="#e2bd35"/><path d="M702 529h41v104h-26v-81h1v79h23V531h-37v19h13l-1 2h-14z" fill="#d4b33b"/><path d="M732.094 219.281c10.379 7.83 13.41 19.678 15.906 31.719l.537 1.948c.495 2.192.592 4.143.596 6.388l.004 2.476-.012 2.563.012 2.54c-.007 4.475-.233 8.68-1.137 13.085h-1l-.044-1.75c-.226-29.81-.226-29.81-14.269-54.812-7.12-6.332-13.742-7.936-23.062-7.688l-2.517.033c-5.746.104-11.407.47-17.108 1.217v2c-1.642.92-3.314 1.787-5 2.625-3.77 1.985-3.77 1.985-5.664 5.547-.013 2.454-.013 2.454.664 5.828h-4l-1 2h-2l-.148 1.758c-.344 3.594-.68 6.768-1.914 10.18-1.13 3.687-1.048 6.866-.91 10.695-.028 2.367-.028 2.367-.524 4.19-.584 2.524-.617 4.79-.602 7.38l.01 2.969.025 3.078.014 3.125q.018 3.813.049 7.625h2v6l3 1c1.617 3.233 2.391 6.45 3 10l3-1v6c-8.822-7.814-13.393-19.229-14.2-30.884-.706-19.096-.388-39.19 13.2-54.116 13.58-14.382 37.028-13.55 53.094-3.719" fill="#dfbe41"/><path d="M365 99c3.625 1.648 6.206 3.411 8 7 .784 5.63.295 10.229-3 15-2.899 2.415-4.751 2.964-8.5 3.5-4.405-.63-5.745-2.097-8.5-5.5-2.085-4.17-1.454-9.457-1-14 3.437-5.843 6.414-6.447 13-6m256 0c3.586 1.637 4.793 2.69 7 6 .641 4.677 1.119 9.779-1.05 14.086-3.046 3.683-5.069 4.813-9.763 5.352-2.557-.014-3.766-.104-5.789-1.708-3.945-4.74-4.879-8.09-4.8-14.109.568-3.703 1.934-5.776 4.554-8.402C614.6 97.945 616.956 98.358 621 99" fill="#1e1e1e"/><path d="M560 373q7.663-.036 15.326-.055 2.609-.008 5.218-.02 3.742-.017 7.483-.023l2.37-.015c1.869 0 3.736.051 5.603.113 1.943 1.943 1.12 4.885 1.124 7.47l-.01 2.823v2.956c0 3.241-.009 6.483-.016 9.724l-.005 6.721q-.006 8.865-.024 17.73-.014 9.04-.02 18.078c-.01 11.833-.029 23.665-.049 35.498h-22l-.076-7.22q-.125-11.79-.263-23.577-.084-7.15-.158-14.3-.072-6.896-.156-13.79-.031-2.636-.056-5.271-.037-3.682-.086-7.363l-.017-2.217c0-3.756 0-3.756-1.188-7.262-3.046-.47-3.046-.47-6.562-.625L560 392zm1 3v15h13c1.184 3.553 1.176 6.8 1.205 10.5l.03 2.307q.047 3.774.081 7.548l.063 5.234q.083 6.887.153 13.775.077 7.027.161 14.056.161 13.79.307 27.58h19c1.655-3.31 1.138-7.003 1.13-10.64l.005-2.711q.004-4.45-.002-8.899l.003-6.165q.001-6.466-.006-12.933-.006-8.303.004-16.605.005-6.368 0-12.734l.002-6.125q.003-4.273-.007-8.547l.007-2.576c.096-4.166.096-4.166-1.136-8.065z" fill="#f2c51d"/><path d="M468 214h41v104h-26v-81h-15zm1 4c-.546 1.918-.546 1.918-.39 4.012l.038 2.295.102 2.38.055 2.417c.047 1.966.119 3.93.195 5.896l16 1-.219 4.262c-1.164 25.566-.866 51.153-.781 76.738h24V215c-20.804-2.412-20.804-2.412-39 3" fill="#c3a435"/><path d="M918 217c8.345 4.966 15.738 13.561 18.6 22.975.464 2.128.83 4.246 1.15 6.4l.366 2.37c2.63 18.518 1.981 40.471-9.428 56.067-3.164 3.863-6.48 6.526-10.688 9.188l-1-3 2.25-1.187c2.954-1.948 4.618-4.02 6.75-6.813l2-1c2.852-3.878 3.534-7.25 4-12h1c1.658-7.161 2.418-14.1 2.688-21.437l.142-2.909c.4-9.75.043-18.827-3.58-27.966l-.727-2.01c-1.796-4.69-4.037-8.048-7.523-11.678-2.671-.955-2.671-.955-5-1v-2h-2l-1-2a221 221 0 0 0-7-2l-1-1c-2.781-.102-5.531-.14-8.312-.125l-2.455.006c-6.445.046-12.824.415-19.233 1.119 8.449-8.449 30.594-5.332 40 0" fill="#e2bf3c"/><path d="m696 395 2 1-2.93 4.004c-3.746 6.987-3.372 14.194-3.32 21.933l-.023 3.46c.02 8.636.757 16.017 5.273 23.603 5.095 3.397 11.06 2.662 17 2 4.82-3.024 6.69-7.582 8-13 .376-4.314.432-8.597.391-12.927-.016-2.002.002-4.006.02-6.009-.027-8.67-.263-17.331-6.411-24.064 2.324.617 2.324.617 5 2 1.582 2.82 1.582 2.82 2.813 6.125l1.269 3.32L726 409h1c.03 3.146.047 6.292.063 9.438l.025 2.662c.044 11.972.044 11.972-1.088 16.9l-2 2-.375 3.375c-.7 4.065-1.421 5.154-4.625 7.625-3.916 2.665-8.005 2.296-12.562 2.25l-2.327.023c-3.883-.013-5.811-.073-9.111-2.273v-3h-2l-1-6h-2c-1.924-13.094-3.842-30.683 2-43 2.11-2.3 2.11-2.3 4-4" fill="#ddba3c"/><path d="M1104 439c1.438 2.063 1.438 2.063 2 4h2l1-3c2.957-1.478 5.742-1.06 9-1l1 4-3-2h-3v3l7 3c-.375 2.438-.375 2.438-1 5-2.771 1.386-4.933 1.188-8 1l-3-2c-2.789.396-2.789.396-5 2-6.352.47-6.352.47-8.7-1.234-2.067-2.807-1.776-5.284-1.644-8.664.344-2.102.344-2.102 1.907-4.227 3.519-1.263 5.867-.867 9.437.125" fill="#343330"/><path d="M914 531c7.296 1.381 12.76 7.228 17 13 3.15 5.001 5.005 9.485 6.25 15.25l.51 2.349c3.616 18.25 2.405 39.84-7.326 56.003-5.581 7.743-13.186 12.92-22.434 15.398-3.448.428-6.84.477-10.312.438l-2.81-.023c-10.77-.26-18.134-2.843-25.878-10.415l2-1 1.938 1.813c3.832 2.737 7.575 3.899 12.062 5.187l3.168 1.078c4.687 1.128 8.974 1.142 13.77 1.047l2.65-.027A909 909 0 0 0 911 631v-2l3.25-1.187c3.691-1.564 5.34-3.6 7.75-6.813l2.5-1.375c6.921-4.499 9.206-14.922 10.89-22.512 2.992-17.471 1.912-40.168-8.39-55.113-3.813-4.18-8.077-7.231-13-10z" fill="#dbb93d"/><path d="M914 530v1c-5.75.125-5.75.125-8-1-3.14-.263-6.288-.231-9.437-.25l-2.643-.062-2.541-.016-2.326-.028c-2.578.447-3.262 1.523-5.053 3.356-3.687.188-3.687.188-7 0l-.812 2.188c-3.014 7.137-3.014 7.137-6.688 9.25-5.081 3.175-6.056 9.055-7.5 14.562l-.743 2.335c-2.205 7.206-2.684 13.783-2.57 21.29l-.01 3.234c.039 5.634.435 10.807 1.884 16.26.616 2.642.577 5.184.439 7.881h-1c-6.8-17.85-6.988-41.161 0-59 4.291-9.42 11.339-17.681 20.93-21.836 10.128-3.717 23.383-4.11 33.07.836" fill="#e4bc28"/><path d="M891 391q2.844-.04 5.688-.062l3.199-.036c2.907.092 5.35.187 8.113 1.098 1.258 1.742 1.258 1.742 2.125 3.875 1.254 3.064 1.254 3.064 3.416 5.5 1.819 2.026 1.825 2.95 1.8 5.637l-.001 2.427-.047 2.604-.013 2.678c-.017 2.822-.054 5.644-.092 8.466q-.024 2.87-.042 5.74A2313 2313 0 0 1 915 443h-2l-.187 1.688c-1.19 3.382-3.093 5.015-5.813 7.312-5.626 2.685-11.836 2.844-17.812 1.25-3.82-2.182-5.816-4.313-7.454-8.437-3.595-13.925-4.729-27.934-.547-41.875l.594-2.002c1.102-3.193 2.057-4.813 4.77-6.87C889 393 889 393 891 393zm-5.187 7.375c-5.057 7.323-4.994 15.279-5 23.875l-.038 2.7c-.016 7.736.043 16.407 5.225 22.613l1.563 1.94c2.03 2.114 3.142 2.474 6.082 2.7l3.168.047 3.144.078c3.523-.38 5.263-1.147 8.043-3.328 1.614-2.314 1.614-2.314 2.75-4.937l1.234-2.59c2.518-6.13 2.236-12.111 2.266-18.66l.063-3.33c.038-8.175-.507-16.24-6.375-22.483l-1.536-1.687c-3.247-3.04-6.702-2.583-10.93-2.528-4.537.394-6.664 2.337-9.66 5.59" fill="#e3be38"/><path d="M817 372v1l-1.984-.016q-4.508-.029-9.016-.046l-3.121-.026c-5.73-.018-11.214.223-16.879 1.088v2c-1.61 1.586-1.61 1.586-3.75 3.375l-2.215 1.895L778 383c-3.402 3.034-5.064 5.876-7 10l-1.562 2.563c-1.426 2.417-2.423 4.826-3.438 7.437l-1 1c-2.416 14.41-3.485 32.052 2.223 45.715.874 2.571.704 3.773-.223 6.285a658 658 0 0 1-1.875-4.937l-1.055-2.778c-6.259-19.21-5.318-41.244 3.434-59.406 4.905-8.71 13.091-15.755 22.848-18.484 8.81-1.313 18.166-1.222 26.648 1.605" fill="#e0b930"/><path d="M904 700h3l1 5 2.813-.187c3.187.187 3.187.187 4.875 1.312 1.895 2.709 1.605 4.799 1.5 8.063l-.083 3.292L917 720h-3l-1-12h-5l-1 12-4-1-1 1c-2.437.188-2.437.188-5 0-2.725-2.725-2.427-4.573-2.687-8.375l-.262-3.46c-.043-2.687.121-4.639.949-7.165h3v4h4z" fill="#292825"/><path d="M829 380c8.241 5.09 11.947 15.769 14.309 24.73 2.59 13.537 1.868 29.147-2.309 42.27l-.996 3.156C837.237 457.74 833.05 463.627 827 469h-2v-3a791 791 0 0 1 5-3c1.192-2.05 1.192-2.05 2-4l2-1c5.648-10.355 5.33-22.856 5.26-34.366-.01-2.132 0-4.263.013-6.396.008-8.561-.676-16.807-2.273-25.238h-2c-3-5.75-3-5.75-3-8l-3-1z" fill="#f1c727"/><path d="M905.813 550.125c6.957 4.092 6.957 4.092 9.187 7.875.964 3.995.977 7.904 1 12q.054 2.069.113 4.137c.224 10.55-.239 20.9-4.113 30.863h-2l-.187 2.313C909 610 909 610 906.828 611.64c-3.196 1.536-5.36 1.792-8.89 1.797l-3.098.058c-3.47-.606-4.635-1.825-6.84-4.496l1-2 1.727.977c3.731 1.68 7.26 1.567 11.273 1.023 5.668-2.567 7.867-6.398 10-12 1.599-5.288 1.184-10.776 1.188-16.25l.037-3.355c.016-8.93-.508-16.119-6.225-23.395-3.52-2.347-5.2-2.327-9.375-2.375l-3.398-.086c-3.984.57-5.495 1.523-8.227 4.461-1.447 3.229-1.447 3.229-2.312 6.75l-.989 3.547L882 569h-1c-.379-5.93.894-10.472 3-16h3l1-3c5.833-1.944 11.964-1.6 17.813.125" fill="#deb932"/><path d="m631.408 451.886 3.158.016 3.409.01 3.587.025 3.6.014q4.419.018 8.838.049c-.594 3.366-1.432 6.357-2.742 9.512l-1.043 2.549-2.156 5.195a152 152 0 0 0-5.398 15.555c-1.182 3.914-2.931 7.491-4.661 11.189h-17c.515-9.096 1.734-17.833 3.584-26.743a882 882 0 0 0 1.244-6.14c2.255-11.074 2.255-11.074 5.58-11.23M631 454v2h-2c-.08.645-.16 1.291-.244 1.956-.37 2.932-.75 5.863-1.131 8.794l-.383 3.078-.39 2.969-.35 2.73c-.501 2.47-1.346 4.252-2.502 6.473-.278 2.786-.278 2.786-.188 5.687l.02 2.95c-.095 2.319-.095 2.319 1.168 3.363 2.02.072 4.042.084 6.062.062l3.348-.027L637 494c1.89-4.293 3.543-8.538 5-13 .71-1.904 1.42-3.807 2.14-5.707 1.367-3.645 2.677-7.31 3.993-10.973C649 462 649 462 650 460v-6z" fill="#cbae3e"/><path d="M271 86c12.222-.494 12.222-.494 15.887 1.832C289 90 289 90 289.625 92.938 289 96 289 96 287.313 98.875c-5.286 3.39-10.123 2.438-16.313 2.125z" fill="#202020"/><path d="M1035 404c9.057-.604 9.057-.604 13.125 2 2.071 3.314 2.635 5.218 2.344 9.063-.883 3.65-2.349 4.94-5.469 6.937-3.448.405-6.506.233-10 0z" fill="#292926"/><path d="M305 435c10.135-.483 10.135-.483 13.688 1.5 1.841 3.508 2.086 6.676 1.312 10.5-1.794 2.81-3.019 4.51-6 6h-9z" fill="#232322"/><path d="m445 210-1 2c-1.785.422-1.785.422-4.062.75-6.205 1.282-10.632 4.275-14.512 9.281-3.74 5.744-4.549 10.02-4.584 16.904l-.015 2.114q-.022 3.506-.032 7.01l-.03 5.027q-.04 6.824-.068 13.648-.035 7.13-.076 14.261-.074 13.504-.138 27.008-.076 15.374-.16 30.747-.17 31.625-.323 63.25h-1q-.408-33.132-.702-66.265a8234 8234 0 0 0-.323-30.77q-.171-13.415-.27-26.831c-.036-4.733-.082-9.465-.154-14.197a1182 1182 0 0 1-.123-13.385 366 366 0 0 0-.066-4.89c-.195-9.98.63-18.235 6.638-26.662 6.198-6.143 12.115-9.423 21-9" fill="#c1bfa8"/><path d="M729 375c-3 1-3 1-6.312-.426-6.041-2.43-12.28-1.893-18.688-1.762l-3.793.042q-4.604.053-9.207.146v2c-3 2-3 2-6 2l-1 3-2 2c-2.118 2.528-3.973 4.953-5.625 7.813L675 392h-2v8h-2l-.437 3.313C670 407 670 407 669 410c-.06 2.188-.06 4.378-.027 6.566l.037 3.909q.037 3.075.086 6.149c.03 1.98.047 3.961.064 5.942l.051 3.592C669 439 669 439 667 441c-4.493-13.479-2.394-35.114 3.36-48.059 4.934-9.576 11.708-18.273 22.277-21.828 12.805-2.636 24.556-1.524 36.363 3.887" fill="#e4bd35"/><path d="M988 451h1q.337 32.01.598 64.022c.081 9.91.17 19.819.277 29.728q.138 12.96.232 25.919c.033 4.572.073 9.144.13 13.716q.08 6.464.109 12.928.015 2.364.053 4.728c.172 11.097-.664 20.96-8.567 29.424-5.471 4.584-11.758 7.074-18.832 7.535l1-3c1.785-.52 1.785-.52 4.063-.812 6.76-1.303 11.148-4.88 15.312-10.25 2.854-5.16 3.877-8.902 3.903-14.841l.018-2.067c.017-2.279.02-4.557.023-6.836l.03-4.908c.028-4.438.043-8.876.056-13.313.015-4.64.042-9.278.068-13.918.047-8.783.083-17.566.116-26.349.039-10 .088-20 .138-30q.154-30.852.273-61.706" fill="#a6a586"/><path d="m485 237 3 1v74l3-1 2 2-7 2c-1.196-3.755-1.12-7.327-1.114-11.247v-2.189c0-2.38.009-4.761.016-7.142l.005-4.96q.006-6.52.024-13.04.014-6.656.02-13.313.016-13.055.049-26.109" fill="#f8c818"/><path d="M677 225h2c1.354 2.709 1.065 5.01 1 8h-4l-1 2h-2l-.148 1.758c-.344 3.594-.68 6.768-1.914 10.18-1.13 3.687-1.048 6.866-.91 10.695-.028 2.367-.028 2.367-.524 4.19-.584 2.524-.617 4.79-.602 7.38l.01 2.969.025 3.078.014 3.125q.018 3.813.049 7.625h2v6l3 1c1.617 3.233 2.391 6.45 3 10l3-1v6c-8.822-7.814-13.393-19.229-14.2-30.884-.661-17.878-.608-37.458 11.2-52.116" fill="#dfba36"/><path d="M491.438 704.938c4.103 1.223 5.827 2.83 8.562 6.062l1-6h7v3h-4l-1 11h-3l-1-4-.727 1.934C497 719 497 719 494.977 719.785c-2.41.284-4.561.464-6.977.215-3.136-2.524-3.856-4.115-4.5-8.062.5-2.938.5-2.938 2.063-5.375C488 705 488 705 491.438 704.938" fill="#c0bba6"/><path d="M629 295h24c-2 9-2 9-4 12l1-10h-19v8h-1l-.335 1.677L624 335h13v-2h2l-1 5h-17c0-5.675.351-9.041 1.813-14.312 1.854-6.92 3.154-13.844 4.235-20.924.862-5.584.862-5.584 1.952-7.764" fill="#d6b434"/><path d="M338 438q2.502.488 5 1c.108 2.751.187 5.498.25 8.25l.102 2.355c.098 5.773.098 5.773-2.176 8.915-2.93 1.993-4.705 1.997-8.176 1.48-1.875-1.375-1.875-1.375-3-3v-2h3v2l7-2 1-4-3 2c-3 .375-3 .375-6 0-2.795-2.329-2.985-3.88-3.437-7.5.437-3.5.437-3.5 2.125-5.937 2.786-1.883 4.01-1.966 7.312-1.563" fill="#e8e8e5"/><path d="M816 530c7.766 1.174 13.93 6.097 18.727 12.164 10.05 14.49 11.63 35.518 8.826 52.55-3.114 14.26-3.114 14.26-7.553 19.286.59-3.276 1.432-6.24 2.578-9.36 2.103-6.91 1.54-13.76 1.172-20.89l-.16-3.988A885 885 0 0 0 839 568l-.195-3.912-.215-3.733-.184-3.315c-.666-4.987-2.665-8.88-5.406-13.04l-1.277-1.957c-4.081-5.43-9.712-8.123-15.723-11.043z" fill="#e0bc37"/><path d="m778.25 705.313 2.703.363L783 706c.081 2.584.14 5.165.188 7.75l.076 2.21c.044 3.223-.06 5.633-1.514 8.54-3.064 2.626-5.857 1.755-9.75 1.5l-2-4 9 1 2-5-1.625 1.063c-3.182 1.256-5.117.858-8.375-.063-1.96-2.94-2.312-3.681-2.375-7l-.086-2.062C769 708 769 708 770.695 706.23c2.86-1.526 4.376-1.378 7.555-.918" fill="#c9c5b4"/><path d="M588 705c10 0 10 0 13.188 2.063C603 710 603 710 603.063 713.625 602 717 602 717 600.375 719c-3.363 1.416-5.871.741-9.375 0v7h-3z" fill="#dddbd1"/><path d="M957 706c.08 2.771.14 5.54.188 8.313l.076 2.38.029 2.295.048 2.11c-.453 2.524-1.3 3.387-3.341 4.902-6.138.43-6.138.43-9-1l1-3 1 1q3.5.062 7 0l1-5-3 2c-2.437.438-2.437.438-5 0-2.833-2.603-3.878-4.254-4.5-8.062.5-2.938.5-2.938 1.875-5.375 4.123-2.455 8.042-1.368 12.625-.563" fill="#c3bda7"/><path d="M839 237c7.847 11.771 6.375 32.249 3.813 45.5-2.464 9.82-5.913 21.435-14.625 27.438L826 311c.34-3.151.58-4.608 2.938-6.812C831 303 831 303 833 303l1-6h2c5.89-25.833 5.89-25.833 3-51a78 78 0 0 1-.062-4.625l.027-2.477z" fill="#ecc532"/><path d="m895.75 369.563 2.374.02c9.98.274 18.136 3.084 25.876 9.417-3 0-3 0-5.125-1.437-3.393-1.845-6.084-2.084-9.887-2.352C907 375 907 375 905 374c-12.457-.655-22.815.044-33 8-1.726 2.257-2.753 4.41-4 7-2.125 2.438-2.125 2.438-4 4h-2c1.714-7.427 6.594-13.733 12.938-17.875 6.659-3.952 13.107-5.667 20.812-5.562" fill="#e5be2c"/><path d="m718 235 1 5-2.25-1.5c-4.932-2.46-10.397-2.14-15.75-1.5-4.955 2.271-6.267 6.27-8.153 11.116-1.453 4.95-1.345 9.764-1.222 14.884l.004 3.078c.102 8.837.334 19.979 7.05 26.57 3.143 1.83 5.464 1.648 9.071 1.54l3.547-.083L714 294v2c-3.223 1.074-5.615 1.133-9 1.125l-3.187.008C699 297 699 297 696 296c-8.373-12.075-8.598-28.932-6.465-43.023 1.22-6.25 2.46-11.943 6.465-16.977 6.402-3.506 15.074-2.458 22-1" fill="#e5c03b"/><path d="M744 245h1c1.622 9.038 2.392 17.821 2.438 27l.1 3.54c.065 10.844-2.841 20.82-9.538 29.46l-1.75 2.563c-4.538 4.916-11.259 9.26-18.062 9.562L716 317c3.75-2 3.75-2 6-2v-2h5l1-3h3v-2c1.445-1.188 2.893-2.373 4.395-3.488 6.94-6.536 7.68-16.977 8.04-25.947.13-4.605.197-9.209.253-13.815q.05-2.88.103-5.762.124-6.993.209-13.988" fill="#f4c921"/><path d="M749 705v15c-8.3.39-8.3.39-11 0-2.615-2.57-2.974-3.794-3.437-7.5.437-3.5.437-3.5 1.812-5.937 4.151-2.472 7.851-1.814 12.625-1.563" fill="#c5c1ae"/><path d="m818 406 2 1c.41 1.79.41 1.79.633 4.121l.254 2.588.238 2.728.262 2.624c1.25 13.33.733 21.907-7.387 32.939-2.625 2.625-4.362 3.155-8 4-3.367-.126-6.668-.513-10-1v-2l-2.437-.687L791 451c-.812-2.625-.812-2.625-1-5l2.188 2.5c4.146 3.472 8.607 3.2 13.808 2.98 3.197-.3 3.197-.3 6.129-2.543 4.502-7.053 6.01-13.295 5.973-21.55l-.01-3.78-.025-3.92-.014-3.978q-.018-4.854-.049-9.709" fill="#eac02c"/><path d="m1063 439 3-1v15l-3-1-2 1c-5.174.44-5.174.44-7.875-1-1.814-3.224-1.752-6.452-1.125-10 3.006-4.93 5.76-4.048 11-3" fill="#cfcdc7"/><path d="M326 408h4v14c-8.3.39-8.3.39-11 0-2.41-2.404-2.95-3.593-3.375-7 .87-6.962 3.815-7.46 10.375-7" fill="#e1e1de"/><path d="M535 232c1.35 3.81.739 6.999.125 10.938l-.555 3.652c-.598 3.575-1.254 7.115-2.113 10.637-2.07 12.563-1.042 25.892 3.543 37.773l2 2a90 90 0 0 1 1 6c-3.283-2.947-5.003-5.621-6.687-9.687l-1.262-2.95C525.54 272.73 526.712 248.575 535 232" fill="#ccab35"/><path d="M559 706c1.938 1.188 1.938 1.188 3 3 .5 2.875.5 2.875 0 6-2.517 3.405-3.904 4.825-8.125 5.5-3.212-.559-3.933-.978-5.875-3.5-.614-3.051-.502-5.934 0-9 3-4.08 6.452-3.158 11-2" fill="#c5c1b1"/><path d="M890 233c12.532-.618 12.532-.618 17.563 1.5 8.045 8.252 8.235 16.097 8.312 27.125q.048 2.254.102 4.508c.116 6.066.197 11.884-.977 17.867h-2v2h-2l.98-3.754c1.27-5.738 1.35-11.327 1.332-17.183l.05-3.092c.004-7.969-.937-15.258-5.362-22.034-3.967-3.842-8.882-3.324-14.113-3.292-3.135.141-3.135.141-5.95 2.667L886 242l-3 3c.557-3.344 1.352-6.033 3-9h4z" fill="#e5be32"/><path d="M729 376c7.716 3.858 12.984 11.43 15.875 19.418 5.506 17.496 6.63 42.38-1.598 59.078-1.652 2.934-3.32 5.764-5.277 8.504h-1c-.187-2.312-.187-2.312 0-5 1.313-1.437 1.313-1.437 3-3 2.576-4.474 3.838-8.826 4.688-13.875l.381-2.241c1.907-12.155 1.092-23.792-1.069-35.884-.367-2.664-.686-5.33-1-8h-2l-2-6h-2l-1-6-1.812-.25c-2.817-.966-3.666-2.239-5.188-4.75z" fill="#e3c13f"/><path d="m775 308 6 2v2c1.572.09 1.572.09 3.176.184l4.136.253 2.092.12c3.068.192 5.666.466 8.596 1.443l2.813-.5c3.187-.5 3.187-.5 6.125.063 3.851.55 6.362-.415 10.062-1.563 2.664-.43 5.315-.717 8-1-8.355 6.734-17.595 7.753-28 7l-3.621-.215c-8.174-.783-13.656-2.744-19.379-8.785z" fill="#ebbf1c"/><path d="M718 553h1q.431 11.32.834 22.64.186 5.259.387 10.518c1.093 28.585 1.093 28.585-.221 42.842l18 1v1h-20z" fill="#f4c924"/><path d="M452 701h3l4 13 4-13h2c-.62 6.575-2.149 12.667-4 19h-3l-4-12c-1.668 2.502-2.624 4.411-3.625 7.188-.26.715-.52 1.43-.79 2.167-.192.543-.386 1.086-.585 1.645h-3q-1.005-3.687-2-7.375l-.578-2.117C442 704.227 442 704.227 442 702h2c3.429 8.429 3.429 8.429 3 13h2l.375-3.062c.606-3.817 1.497-7.253 2.625-10.938" fill="#ccc7b2"/><path d="m835 614 1 2c-5.618 8.68-12.886 14.303-23 17-3.47.427-6.882.476-10.375.438l-2.81-.017c-8.72-.194-14.917-2.06-21.815-7.421 5.625-.25 5.625-.25 9 2 7.673 2.606 17.237 3.588 25 1a195 195 0 0 1 7 0v-2l8-2v-4h2l1-3 3-1z" fill="#e2bd2f"/><path d="m416 407 2 3c-3.542 8.068-8.178 13.089-16 17l2.063 1.625L407 431l1.715 1.285c4.783 3.758 8.23 7.92 10.285 13.715.102 2.64-.286 4.42-1 7a36 36 0 0 1-2.875-6.875c-2.533-7.035-6.945-12.035-13.625-15.375-2.815-.845-5.591-1.344-8.5-1.75v-3l3.5-.687c8.211-2.119 12.902-6.091 17.371-13.227 1.255-2.174 1.255-2.174 2.129-5.086" fill="#cfcec6"/><path d="M1104 439c1.938 1.813 1.938 1.813 3 4v4h-12l2 3c3.201.337 5.929-.09 9-1-1.062 2-1.062 2-3 4-5.985.748-5.985.748-8.691-1.246-2.085-2.794-1.785-5.274-1.653-8.652.344-2.102.344-2.102 1.907-4.227 3.527-1.266 5.85-.853 9.437.125" fill="#d2d1ca"/><path d="M334 408h14l3.063-.187c2.937.187 2.937.187 4.609 1.343 1.853 2.573 1.626 4.399 1.515 7.531l-.082 3.012L357 422h-2l-.184-2.152-.253-2.786-.247-2.777c-.076-2.247-.076-2.247-1.316-3.285h-5l-1 11h-3l-1-11h-5l-1 11h-3z" fill="#cdcdc7"/><path d="m788 553 4 1-.84 1.828-1.097 2.422-1.09 2.39c-4.401 10.676-3.69 28.578.027 39.36 1.186 2.173 2.508 4.011 4 6v3c-3.265-1.804-4.89-2.834-7-6-.195-2.48-.195-2.48-.125-5.187l.055-2.731L786 593h-2c-.486-29.407-.486-29.407 4-40" fill="#e9c538"/><path d="M863 705c2.375 1.188 2.375 1.188 4 3v5h-11l2 4c2.555.812 2.555.812 5 1l1-3h3c-1.75 3.875-1.75 3.875-4 5-2.875.375-2.875.375-6 0-2.437-2.062-2.437-2.062-4-5 .06-3.52.338-5.92 2.188-8.937 2.734-1.604 4.702-1.444 7.812-1.063" fill="#c3c1b4"/><path d="M737 464c-7.608 7.976-16.477 12.123-27.523 12.438-17.046-.007-17.046-.007-22.477-5.438h11v2c3.71-.081 7.417-.194 11.125-.312l3.172-.069c5.672-.197 9.744-.587 14.703-3.619h2l.875-2.437c1.77-4.034 3.27-3.72 7.125-2.563" fill="#f0c62c"/><path d="M992 409q1.622 2.428 3.227 4.867c5.463 7.845 11.472 11.306 20.773 13.133v2l-2.344.41c-8.403 1.737-14.164 4.317-18.996 11.613-2.096 3.894-3.217 7.543-3.66 11.977-2-3-2-3-2-5.625 2.246-7.581 6.808-12.79 13.266-17.184 1.875-1.21 1.875-1.21 3.734-3.191l-1.793-1.102c-5.524-3.514-10.617-6.809-13.082-13.148C991 411 991 411 992 409" fill="#c9c8b9"/><path d="m605 292 3 1c-5.67 11.783-11.33 19.537-24 24l-1.926.684c-8.573 2.573-17.615 1.919-26.074-.684v-1l2.307-.06c3.46-.095 6.92-.205 10.38-.315 1.199-.03 2.397-.062 3.631-.094l3.506-.117 3.222-.095c3-.324 5.194-1.15 7.954-2.319h3v-2h2v-2h3l.75-1.812C597 305 597 305 599.063 303.5c2.254-1.745 2.556-2.734 2.937-5.5h2z" fill="#e1bd36"/><path d="M581 236c6.369 8.735 7.462 18.583 7.25 29.125l-.016 3.129c-.16 15.66-.16 15.66-4.234 22.746l-2-1 .621-2.266.817-2.984.808-2.953L585 279l.534-1.917c2.502-11.19 1.23-25.597-3.89-35.778-1.802-2.526-2.719-3.358-5.644-4.305-2.877-.353-2.877-.353-5.937-.312l-3.09-.051c-3.344.408-5.16 1.587-7.973 3.363l-2-1v-2h3v-2c6.793-1.393 14.695-2.373 21 1" fill="#e0ba33"/><path d="M1041 98c3.125 2.313 3.125 2.313 5 5v3h-19c1.718-8.589 5.802-9.423 14-8m-559 0c2.625 1.75 2.625 1.75 4 4v4h-19c1-5 1-5 2.75-6.785 3.933-2.124 7.908-1.871 12.25-1.215" fill="#262626"/><path d="M366.438 407.5c3.562.5 3.562.5 6 2.25C374 412 374 412 374 416h-11l1 3c3.343.074 5.804.065 9-1-1 3-1 3-3 4-3.437.313-3.437.313-7 0-2.638-2.212-2.95-3.594-3.375-7 .629-5.028 1.677-6.753 6.813-7.5" fill="#cecdc6"/><path d="M1113 408c1.938 1.188 1.938 1.188 3 3v5h-11l2 3c3.105.318 5.017-.006 8-1l-2 4c-3.25.313-3.25.313-7 0-2.5-2.125-2.5-2.125-4-5 .064-3.184.49-5.15 2.125-7.875 3-1.8 5.469-1.49 8.875-1.125" fill="#d1d0ca"/><path d="M765.805 97.61c3.307.588 5.027 1.872 7.195 4.39v4h-19c1.764-7.055 4.835-8.713 11.805-8.39" fill="#1c1c1c"/><path d="M830.625 705.125C834 706 834 706 836 708v5h-11l1 3c5.083.113 5.083.113 10-1-1.75 3.875-1.75 3.875-4 5-2.937.313-2.937.313-6 0-2.795-2.329-2.985-3.88-3.437-7.5.437-3.5.437-3.5 2-6 2.437-1.5 2.437-1.5 6.062-1.375" fill="#b8b5a5"/><path d="M1087 408c1.938 1.188 1.938 1.188 3 3v5h-11l2 3c3.201.337 5.929-.09 9-1-1 2-1 2-3 4-2.894.562-4.995.334-8 0-2.544-3.816-2.577-6.53-2-11 2.168-4.082 5.806-3.45 10-3" fill="#d8d8d1"/><path d="M719 240h2a167 167 0 0 1 1.938 3.5l1.09 1.969c2.675 6.964 2.155 14.869 2.16 22.219l.037 3.087.005 2.987.013 2.686c-.27 2.843-1.105 4.944-2.243 7.552l-1 3.688C722 291 722 291 720 293h-3l-1 2-2-2 2.313-2.062c6.472-7.075 6.884-15.511 6.875-24.625l-.003-2.408c-.086-8.319-1.227-16.088-4.185-23.905" fill="#eec737"/><path d="M797 705c1.938 1.75 1.938 1.75 3 4v4h-12l3 4 8-1c-1.625 2.063-1.625 2.063-4 4-3.9-.16-5.731-.82-9-3-.765-6.776-.765-6.776 1.563-10.5 3.371-2.075 5.553-2.065 9.437-1.5" fill="#b3b09e"/><path d="M763 558h1l-.048 3.206c-.055 3.98-.089 7.962-.117 11.943a782 782 0 0 1-.061 5.138c-.39 15.866-.39 15.866 4.327 30.84C769 611 769 611 769 614h2c1.438 1.898 1.438 1.898 3 4.375 1.571 2.475 2.924 4.549 5 6.625-3 0-3 0-4.648-1.363-10.57-11.933-13.906-26.57-13.664-42.2l-.01-3.17c.047-6.945.852-13.481 2.322-20.267" fill="#d9b439"/><path d="M773 463h2v2h4l1 3c4.556 2 9.1 2.493 14 3v2c9.216.309 17.912-.61 27-2v-2l4 1c-10.253 6.408-21.959 7.826-33.824 5.43A52 52 0 0 1 785 473l-3.25-1.437c-7.273-4.133-7.273-4.133-8.75-8.563" fill="#d8b73b"/><path d="M517.625 705.125C521 706 521 706 523 708v5h-10l1 4c3.625.201 5.865-.142 9-2-.562 1.938-.562 1.938-2 4-3.375 1.063-3.375 1.063-7 1-3.001-2.54-3.868-4.19-4.5-8.062.5-2.938.5-2.938 2.063-5.375C514 705 514 705 517.625 705.125" fill="#c7c5b2"/><path d="M865 302c1.938.313 1.938.313 4 1l1 3c4.439 4.439 8.23 6.067 14.313 7.313l2.298.498c5.229 1.082 10.055 1.662 15.389 1.189l3.648-.238q5.179-.348 10.352-.762c-4.577 4.577-11.626 4.247-17.75 4.313-11.584-.082-20.694-2.064-29.25-10.313-4-4.488-4-4.488-4-6" fill="#e1bb2d"/><path d="M671.625 705.125C675 706 675 706 677 708v5h-11l2 5 2.813-.937L677 715c-.562 1.938-.562 1.938-2 4-3.375 1.063-3.375 1.063-7 1-3.001-2.54-3.868-4.19-4.5-8.062.5-2.938.5-2.938 2.063-5.375C668 705 668 705 671.625 705.125" fill="#b6b2a1"/><path d="M818 566h2c.03 4.52.047 9.042.063 13.563l.025 3.869.01 3.76.016 3.443c-.195 5.776-.591 10.348-3.989 15.115l-1.555 2.234c-1.45 1.862-2.745 3.52-4.57 5.016-6.173.628-10.336-.573-16-3l1-2 2 1c4.499.414 8.64.532 12.875-1.125 5.41-4.774 7.13-9.972 8.125-16.875.224-4.359.19-8.7.125-13.062l-.027-3.49q-.036-4.225-.098-8.448" fill="#deb938"/><path d="M842 406c3.023 4.535 2.34 8.974 2.313 14.313l-.015 3.291c-.12 8.177-.804 15.562-3.298 23.396l-.996 3.156C837.237 457.74 833.05 463.627 827 469h-2v-3a791 791 0 0 1 5-3c1.192-2.05 1.192-2.05 2-4l2-1a125 125 0 0 0 3.063-7.562l.814-2.096c3.506-9.381 3.378-18.931 3.686-28.842l.13-3.937q.159-4.781.307-9.563" fill="#d2b33c"/><path d="M904 700h3l1 5 2.813-.187c3.187.187 3.187.187 4.875 1.312 1.895 2.709 1.605 4.799 1.5 8.063l-.083 3.292L917 720h-3l-1-12h-5l-1 12h-3z" fill="#b8b4a2"/><path d="m810 372 2.941.02c6.664.281 10.884 2.892 16.059 6.98l-3 1-2.375-1.375c-4.63-2.075-8.77-2.173-13.797-2.414C807 376 807 376 805 375v-2l-7 1 1 2q-2.124.079-4.25.125l-2.39.07c-2.567-.212-4.152-.908-6.36-2.195 7.898-2.633 15.788-2.238 24-2" fill="#f1c41e"/><path d="M648 700h3l1 5 3.375.375C659 706 659 706 661 708c.195 2.82.195 2.82.125 6.125l-.055 3.32L661 720h-3l-1-12h-5l-1 11-3 1z" fill="#bab7a7"/><path d="M468 700h3v6l3.313-.687c3.687-.313 3.687-.313 5.406.812 1.776 2.6 1.578 4.447 1.469 7.563l-.083 3.011L481 719h-3l-1-11-5 1-1 11h-3z" fill="#bcb8a6"/><path d="M305 435c10.135-.483 10.135-.483 13.688 1.5 1.841 3.508 2.086 6.676 1.312 10.5-1.794 2.81-3.019 4.51-6 6h-9zm2 2v14c6.393.624 6.393.624 8.918-1.215 1.37-2.259 1.45-3.718 1.394-6.348l-.011-2.378c-.124-2.28-.124-2.28-2.301-4.059-2.688-.27-5.291-.087-8 0" fill="#e0e0de"/><path d="M909 398c2 0 2 0 4.1 1.923 2.598 4.208 2.408 7.47 2.29 12.315-.005.881-.01 1.762-.017 2.67a822 822 0 0 1-.123 8.404q-.03 2.858-.055 5.713c-.044 4.66-.113 9.317-.195 13.975h-2l-.187 1.688c-1.15 3.269-3.301 4.989-5.813 7.312l-1 1a153 153 0 0 1-6.562.063l-3.63-.028L893 453v-1l2.703-.227c7.143-.594 7.143-.594 12.922-4.336L910 444l.777-1.865c2.492-6.563 2.673-12.669 2.598-19.635l.035-3.262c-.024-6.66-.906-12.077-3.41-18.238z" fill="#d3b131"/><path d="m812.188 236 1.812 2-1 2-2.125-1.473c-4.786-2.542-9.588-2.172-14.875-1.527-4.863 2.48-6.23 5.957-8 11-.926 3.763-1.094 7.201-1.027 11.07l.037 3.465q.053 3.601.117 7.203l.033 3.457.051 3.157C787 279 787 279 785 282a140.6 140.6 0 0 1-1-21l.016-2.941c.29-7.97 2.367-14.494 6.984-21.059 5.971-4.215 14.93-4.926 21.188-1" fill="#e4c03a"/><path d="M501 705h7v3h-4l-1 11h-3l-1-4-2 4-2-1h-2c-2.5-.25-2.5-.25-5-1l-2-4h12l1-2h1z" fill="#423f36"/><path d="M1035 404c9.057-.604 9.057-.604 13.125 2 2.071 3.314 2.635 5.218 2.344 9.063-.883 3.65-2.349 4.94-5.469 6.937-3.448.405-6.506.233-10 0zm2 2v14c5.415.61 5.415.61 10-1.625 1.296-3.078 1.483-5.064 1-8.375-1.437-2.52-1.437-2.52-4-4z" fill="#eae9e6"/><path d="M764 239c2 3 2 3 1.688 5.125L765 247c-1.224 8.344-1.113 16.653-1.062 25.063q.008 2.178.013 4.357.017 5.29.049 10.58c-7.654-11.48-3.932-28.558-1.423-41.142q.7-3.432 1.423-6.858" fill="#d3af30"/><path d="M860 551h1q-.216 2.5-.437 5l-.247 2.813a149 149 0 0 1-.84 6.785c-.709 5.598-.66 11.204-.663 16.84l-.038 3.275c-.01 5.7.303 10.895 1.782 16.412.624 2.64.581 5.18.443 7.875h-1c-6.968-18.292-6.392-40.624 0-59" fill="#d4b238"/><path d="M716 395c2.324.617 2.324.617 5 2 1.582 2.82 1.582 2.82 2.813 6.125l1.269 3.32L726 409h1c.03 3.23.047 6.458.063 9.688l.025 2.763.01 2.686.016 2.46c-.121 2.552-.554 4.913-1.114 7.403h-2l-.113-3.664c-.17-18.83-.17-18.83-7.887-35.336" fill="#f1c832"/><path d="M667 250h1l-.016 2.228q-.029 5.073-.047 10.147l-.025 3.504c-.019 6.775.236 13.397 1.088 20.121h2v6l3 1c1.617 3.233 2.391 6.45 3 10l3-1v6c-8.836-7.826-13.468-19.31-14.184-30.997-.57-19.2-.57-19.2 1.184-27.003" fill="#dcb633"/><path d="M720 700h2l1 5 3.375.375C730 706 730 706 732 708c.195 2.82.195 2.82.125 6.125l-.055 3.32L732 720h-3l-1-12h-5c-1.663 1.663-1.36 3.783-1.562 6.063l-.254 2.785L721 719h-2a2399 2399 0 0 1-.062-8.937l-.026-2.577-.01-2.45-.016-2.27C719 701 719 701 720 700" fill="#b0ac9a"/><path d="M924 380c9.455 6.596 12.695 17.563 14.688 28.549 1.027 8.071.604 16.338.312 24.451h-1l-.044-1.833c-.075-2.764-.172-5.528-.269-8.292l-.068-2.883c-.21-5.488-.852-9.144-3.619-13.992a111 111 0 0 1-1.687-6.687l-.762-3.387C931 393 931 393 931 390h-3l-.875-2.75c-.89-2.572-1.84-4.863-3.125-7.25" fill="#ceac32"/><path d="M740 230c3.847 4.12 5.026 7.717 6.188 13.063l.498 2.142c.447 1.93.881 3.862 1.314 5.795l.544 1.961c.489 2.186.585 4.137.589 6.375l.004 2.476-.012 2.563.012 2.54c-.007 4.475-.233 8.68-1.137 13.085h-1l-.044-1.75c-.162-20.96-.162-20.96-5.558-40.973C740 234 740 234 740 230" fill="#d2b136"/><path d="M936 266h1c1.72 15.17-.042 28.525-9.875 40.875-2.972 3.274-6.187 5.156-10.125 7.125v-3a393 393 0 0 1 5-3 149 149 0 0 0 4-5l2-1c2.852-3.878 3.534-7.25 4-12h1c1.888-7.957 2.553-15.845 3-24" fill="#e5c034"/><path d="m594 219-2 1a177 177 0 0 1-4-2 92 92 0 0 0-5.25-1.125l-2.703-.508L578 216v-2q-4.533.387-9.062.813l-2.569.212c-4.062.392-7.525.869-11.24 2.612C552 219 552 219 549.562 218.687L548 218c14.953-8.156 31.318-8.454 46 1" fill="#d0b036"/><path d="M306.438 403.75C310 404 310 404 313 406v2l-9-1 1 4c3.455 1.73 3.455 1.73 7 3 1 1 1 1 1.188 3.438C313 420 313 420 311 422c-1.875.266-1.875.266-4 .25l-2.125.016C303 422 303 422 301 420v-3l3 1v2l6-1v-3l-3.375-1.375C303 413 303 413 301 411c-.25-2.5-.25-2.5 0-5 2-2 2-2 5.438-2.25" fill="#cececa"/><path d="M532 705h3l4 9 4-9h3c-1.45 4.535-3.14 8.933-5 13.313-.26.632-.52 1.264-.79 1.916-1.974 4.653-1.974 4.653-4.21 5.771l.25-3.875c.031-4.913-1.375-8.62-3.375-13.059C532 707 532 707 532 705" fill="#d4d0c1"/><path d="M820 567c2 2 2 2 2.125 5.625L822 576h2q.039 2.969.063 5.938l.035 3.34C824 588 824 588 823 589a234 234 0 0 0-.523 6.09C822 597 822 597 819 599z" fill="#efc320"/><path d="M1034 435h3q1.008 2.654 2 5.313l1.125 2.988C1041 446 1041 446 1041 449h2l.367-1.793c.9-4.245 1.838-8.231 3.633-12.207h3c-1.936 6.205-4.256 12.108-7 18-3-1-3-1-4.5-3.937-1.806-4.587-3.156-9.324-4.5-14.063" fill="#dfdfda"/><path d="M744 407h2c1.654 11.575 1.612 22.933-.375 34.438l-.382 2.242c-.339 1.789-.782 3.558-1.243 5.32l-2 1 .48-2.965c.598-4.198.742-8.359.836-12.594l.063-2.391q.096-3.744.183-7.488l.131-5.107q.16-6.228.307-12.455" fill="#f3c821"/><path d="M729 375c-3 1-3 1-6.312-.426-6.041-2.43-12.28-1.893-18.688-1.762l-3.793.042q-4.604.053-9.207.146v2c-3 2-3 2-6 2l-1 3-3 2-3-1c15.381-12.73 32.81-14.337 51-6" fill="#d8b63d"/><path d="M927 705c8.261-.364 8.261-.364 11.281 1.125 2.449 2.671 2.122 4.505 1.969 8.063l-.11 3.292L940 720h-2l-1-11-5-1c-1.74 1.74-1.372 4.194-1.562 6.563l-.254 3.066L930 720l-3-1z" fill="#bfbba7"/><path d="M816 529v1l-2.156-.048c-3.218-.062-6.437-.101-9.657-.14l-3.392-.076-3.252-.029-3-.048c-2.964.397-3.672 1.098-5.543 3.341-2.05.879-2.05.879-4.312 1.563-.79.244-1.578.49-2.391.742L780 536l-3.562 1.188L774 538c11.1-11.734 26.817-13.859 42-9" fill="#cfae36"/><path d="M593 707c5.568.568 5.568.568 7 2 .25 3.438.25 3.438 0 7-3 2-3 2-5.625 1.688C592 717 592 717 591 716c-.187-3.437-.187-3.437 0-7z" fill="#292826"/><path d="M1119 408c9.625-.25 9.625-.25 13 2 .293 2.82.293 2.82.188 6.125l-.083 3.32L1132 422h-2l-.184-2.152-.254-2.786c-.08-.916-.162-1.833-.246-2.777-.076-2.247-.076-2.247-1.316-3.285h-5l-1 11h-3z" fill="#dfddd8"/><path d="M746 281h1c-.632 10.946-5.257 21.21-13 29-5.387 4.186-11.036 7.398-18 7 3.75-2 3.75-2 6-2v-2h5l1-3h3v-2l2.625-1.875C740.898 300.295 743.8 289.724 746 281" fill="#ddbb3c"/><path d="M948 707c2.616.327 4.64.82 7 2 .36 5.411.36 5.411-1.187 7.938C952 718 952 718 949.375 717.75 947 717 947 717 946 716c-.187-3.437-.187-3.437 0-7z" fill="#272622"/><path d="M555.625 707.25C558 708 558 708 559 709c.25 3.438.25 3.438 0 7-3 2-3 2-5.625 1.688C551 717 551 717 550 716c-.457-5.255-.457-5.255 1.188-7.937C553 707 553 707 555.625 707.25" fill="#2a2926"/><path d="M535 232c1.35 3.81.739 6.999.125 10.938l-.555 3.652c-.33 1.97-.677 3.937-1.074 5.894-.643 3.261-1.097 6.537-1.558 9.828l-.536 3.801L531 269h-1c-.883-25.233-.883-25.233 5-37" fill="#e5bc2b"/><path d="M879 705c3 1 3 1 4.168 2.848L886 714l4-9h2c-.71 4.473-2.219 8.557-3.875 12.75l-.777 2.074c-.695 1.763-1.514 3.475-2.348 5.176l-3 1 .75-3.875c.6-5.048-.741-8.512-2.84-13.059C879 707 879 707 879 705" fill="#d7d3c1"/><path d="M564 705h3l1 11 5 1c1.663-1.663 1.36-3.783 1.563-6.062l.253-2.786L575 706h2v13l-10 1c-3.778-4.722-3.301-9.26-3-15" fill="#b9b6a6"/><path d="M723 415h1v19h2l-.45 1.719a76 76 0 0 0-.945 4.5c-.868 4.74-1.543 7.794-5.605 10.781-3.579 2.28-6.563 2.209-10.75 2.125l-3.547-.055L702 453v-1l2.45-.043c6.69-.227 6.69-.227 12.612-3.02 4.89-7.413 5.436-14.269 5.625-22.937l.104-3.215q.123-3.892.209-7.785" fill="#bda132"/><path d="M335.938 440.813C339 441 339 441 341 443c.25 3 .25 3 0 6-2 2-2 2-5.125 2.125L333 451c-1.491-2.982-1.12-5.716-1-9 1-1 1-1 3.938-1.187" fill="#282826"/><path d="M729 376v2l-17-2v-2a498 498 0 0 0-5.75-.125l-3.234-.07c-2.991.193-4.442.795-7.016 2.195-2.75-.375-2.75-.375-5-1v-2c11.998-2.654 27.012-2.888 38 3" fill="#efc322"/><path d="M819 254h1q.074 6.112.11 12.225.016 2.08.04 4.159c.025 1.993.035 3.986.045 5.98l.032 3.633C820 283 820 283 818 286l-.687 2.938c-1.438 3.353-2.85 4.719-6.094 6.382-4.318 1.323-8.758.97-13.219.68v-1l1.977-.043c6.114-.31 6.114-.31 11.46-3.02 6.806-7.801 6.717-17.926 7.125-27.812l.131-2.953q.159-3.585.307-7.172" fill="#dcb739"/><path d="M740 707c4.556.556 4.556.556 6 2 .188 3.438.188 3.438 0 7l-2 2c-2.5-.187-2.5-.187-5-1-2-3-2-3-1.75-5.562C738 709 738 709 740 707" fill="#272724"/><path d="M1058.938 440.813C1062 441 1062 441 1064 443c.25 3 .25 3 0 6-2 2-2 2-4.5 2.25-2.5-.25-2.5-.25-4.5-2.25-.187-3.562-.187-3.562 0-7 1-1 1-1 3.938-1.187" fill="#262523"/><path d="m898.625 370.563 2.725.02c8.084.196 14.78 1.403 20.775 7.167L924 380c-2.972-1.125-5.334-2.223-8-4-2.212-.418-2.212-.418-4.562-.562-4.246-.342-4.246-.342-6.438-1.438a75 75 0 0 0-4.57-.098l-2.715.01-2.84.026-2.863.013q-3.507.018-7.012.049c3.852-4.057 8.409-3.497 13.625-3.437" fill="#e8bf2c"/><path d="m680 308 2.105.93c3.082 1.139 5.964 1.696 9.207 2.195l3.239.508L697 312l-2 1v3l1.8-.035c6.459-.07 12.78.351 19.2 1.035v1c-23.661 1.297-23.661 1.297-33-6-1.805-2.203-1.805-2.203-3-4" fill="#deb930"/><path d="M468 214h40v1l-3.165.06c-3.875.076-7.75.165-11.624.257q-2.515.059-5.031.105c-2.41.046-4.82.104-7.23.164l-2.274.035c-3.737.106-5.49.255-8.676 2.379a83 83 0 0 0-.687 8.625l-.104 2.43A561 561 0 0 0 469 235h12v1h-13z" fill="#e0bf44"/><path d="M326 410c2 2 2 2 2.25 5-.25 3-.25 3-2.25 5-2.5.25-2.5.25-5 0-2-2-2-2-2.125-5.625L319 411c2.513-1.256 4.217-1.209 7-1" fill="#272726"/><path d="M629 295h24c-2 9-2 9-4 12l1-10h-19v8l-2-1z" fill="#e4c13e"/><path d="M776.063 707.813C779 708 779 708 780 709c.188 3.438.188 3.438 0 7l-2 2c-3.125-.375-3.125-.375-6-1-.625-3.375-.625-3.375-1-7 2-2 2-2 5.063-2.187" fill="#252421"/><path d="M914 530v1c-5.75.125-5.75.125-8-1-3.14-.263-6.288-.231-9.437-.25l-2.643-.062-2.541-.016-2.326-.028c-2.578.447-3.262 1.523-5.053 3.356-3.687.188-3.687.188-7 0l-1 2-2-2c10.877-7.614 28.16-9.046 40-3" fill="#caaa36"/><path d="M727 311v2h-5v2c-8.462 3.66-18.093 2.082-27 1v-1c2.77-.39 5.54-.762 8.313-1.125l2.38-.34 2.295-.293 2.11-.285C712 313 712 313 715 315l1-3c3.734-.879 7.168-1.09 11-1" fill="#eec11a"/><path d="M753 705c8.625-.25 8.625-.25 12 2 .293 2.82.293 2.82.188 6.125l-.083 3.32L765 719h-2l-1-10-4-1c-2.495 2.495-2.36 3.673-2.625 7.125l-.227 2.758L755 720h-2z" fill="#c5c1b0"/><path d="M932 551c7.682 11.524 6.343 32.508 4.484 45.645L936 599h-1c-1.023-8.658-1.07-17.198-.875-25.905.071-5.524-.419-10.517-1.69-15.9C932 555 932 555 932 551" fill="#efc31d"/><path d="M628 453h1c-1.015 23.03-1.015 23.03-4 29-.07 2.04-.084 4.083-.062 6.125l.027 3.32L625 494h-2c-1.615-9.303-.063-17.608 1.938-26.687q.442-2.092.88-4.186c.711-3.38 1.441-6.754 2.182-10.127" fill="#d6b434"/><path d="M365 438c3.625.375 3.625.375 7 1l1 4-1.812-1c-2.242-1.208-2.242-1.208-5.188-1v2l2.938 1.438C372 446 372 446 373 447c.04 1.666.043 3.334 0 5-2.709 1.354-5.01 1.065-8 1l-2-4 8 2-1-3-3-1.375c-3-1.625-3-1.625-4-4.187 0-2.438 0-2.438 2-4.438" fill="#d2d2ce"/><path d="M882 282c2 2 2 2 3.313 5.438 1.892 3.996 2.575 5.075 6.687 6.562 4.587.537 8.574.589 12.875-1.187 2.409-2.055 4.261-4.26 6.125-6.813q.039 2.219.063 4.438l.035 2.496C911 295 911 295 910 296c-3.075.279-6.164.232-9.25.25l-2.605.063c-4.93.03-8.107-.186-12.145-3.313l-3-2c-.512-2.164-.512-2.164-.687-4.625l-.2-2.477z" fill="#d3b23d"/><path d="M814 240h3c7.476 11.335 5.64 26.021 4 39h-1l-.044-2.152c-.075-3.262-.172-6.524-.269-9.786l-.068-3.384c-.218-6.747-1.036-12.432-3.619-18.678l-1.187-3.062z" fill="#efc327"/><path d="m988 613 2 1c-1.863 8.498-5.009 15.643-12.434 20.637-4.804 2.552-9.143 4.01-14.566 4.363l1-3c1.785-.52 1.785-.52 4.063-.812 6.67-1.286 10.996-4.827 15.25-10 2.082-3.935 3.437-7.926 4.687-12.188" fill="#cccab4"/><path d="M555 283a186 186 0 0 1 3.875 6.063c2.127 2.94 2.876 3.689 6.125 4.937 4.657.583 8.738.605 13-1.437l2-1.563 2-1c-.568 3.293-1.245 5.045-4 7a63 63 0 0 1-7.687.188l-2.127-.042c-1.73-.035-3.458-.089-5.186-.146l-1-3-6-1z" fill="#d8b531"/><path d="m557 240 2 1-1.375 2.438C552.14 255.46 553.097 270.153 555 283c-2-1-2-1-2.619-2.587-.528-3.342-.503-6.649-.479-10.022l.005-2.203c.005-2.313.018-4.625.03-6.938q.009-2.357.014-4.715.017-5.767.049-11.535l1.938-.812c2.393-1.075 2.393-1.075 3.062-4.188" fill="#eac536"/><path d="m790 446 2.188 2.5c4.106 3.46 8.45 2.975 13.593 2.871 3.307-.381 6.11-1.205 9.219-2.371-1.002 3.23-2.056 4.034-5 5.813-4.657 1.83-9.18.992-14 .187v-2l-2.437-.687L791 451c-.812-2.625-.812-2.625-1-5" fill="#edc62c"/><path d="m781 217 2 1c-1.756 3.094-3.5 5.5-6 8-1.176 2.1-1.176 2.1-2 4h-4l-.937 2.375C769 235 769 235 768 237h-2c1.96-8.497 8.23-14.882 15-20" fill="#f1c521"/><path d="M606 705h2l1 11 5 1c1.74-1.74 1.372-4.194 1.563-6.562l.253-3.067L616 705h2v15l-4.312.188-2.426.105C609 720 609 720 607.219 718.875c-1.768-2.719-1.51-4.857-1.407-8.062l.083-3.293z" fill="#ceccbc"/><path d="M1077 439h2l1 10q2.486.572 5 1c1.663-1.663 1.36-3.783 1.563-6.062l.253-2.786L1087 439h2v14l-4.875.125-2.742.07C1079 453 1079 453 1077 451c-.195-2.82-.195-2.82-.125-6.125l.055-3.32z" fill="#d4d3ca"/><path d="M714 706c1.438 2.063 1.438 2.063 2 4l-2.187-1.062c-3.125-1.042-4.695-.829-7.813.062-.21 4.14-.21 4.14 1 8 3.625.201 5.865-.142 9-2-1.75 3.875-1.75 3.875-4 5-5.296.563-5.296.563-7.875-1.5-1.706-3.791-1.587-6.344-1.125-10.5 3.041-4.014 6.472-3.258 11-2" fill="#d8d6c4"/><path d="m1118 439 1 4-3-2h-3v3l7 3c-.375 2.438-.375 2.438-1 5-2.709 1.354-5.01 1.065-8 1l-2-4 8 2v-4l-2.875-.375C1111 446 1111 446 1109 444v-4c2.957-1.478 5.742-1.06 9-1" fill="#d0d0cb"/><path d="M1071 402h3l-2 5h2v3h-2v12h-3v-12h-2v-2h2l.438-2.437C1070 403 1070 403 1071 402" fill="#c0bdb1"/><path d="m799.57 391.902 2.715.01 2.84.026 2.863.013q3.507.018 7.012.049.75 2.152 1.488 4.309l.837 2.423c.746 2.507.927 4.665.675 7.268a160 160 0 0 1-3.812-6c-2.32-3.182-3.554-4.546-7.188-6-6.099-.827-10.573.229-16 3v-2h2v-2c2.4-1.2 3.894-1.115 6.57-1.098" fill="#debd3c"/><path d="M807.438 704.75C810 705 810 705 813 707v2l-7-1v2l2.938 1.188C812 713 812 713 812.875 715.688L813 718c-3.228 2.152-4.284 2.2-8 2l-2-4 7 1v-2l-2.937-1.187C804 712 804 712 803 709.438c0-3.48 1.021-4.338 4.438-4.688" fill="#c7c4b3"/><path d="m896.063 528.75 2.49-.062c7.841-.05 14.972 1.717 21.447 6.312v1h-7l-1-3c-14.179-2.832-14.179-2.832-28 0l1-3c3.438-1.72 7.273-1.227 11.063-1.25" fill="#eec220"/><path d="M789 397h2l-1.437 4.813-.81 2.707A216 216 0 0 1 787 410c-.262 4.183-.232 8.372-.25 12.563l-.062 3.462c-.033 7.18.771 13.245 3.312 19.975h-3c-2.226-6.962-2.34-13.648-2.316-20.927a430 430 0 0 0-.045-6.009c-.004-8.195.66-14.663 4.361-22.064" fill="#d9b637"/><path d="M1100.625 438.063c3.375.937 3.375.937 4.813 3L1106 443c-2 2-2 2-4.383 2.195l-2.742-.07-2.758-.055L1094 445l-1-4c2.672-2.672 3.756-3.004 7.625-2.937" fill="#bebdb2"/><path d="M354 435h3v3h3v3h-3v10h3v2c-4.875-.875-4.875-.875-6-2a110 110 0 0 1-.062-5.562l.027-3.067L354 440l-2-1z" fill="#b8b6af"/><path d="M558 372c2.031 3.047 2.247 3.601 2.195 7.012l-.02 2.295-.05 2.38-.027 2.417c-.024 1.965-.06 3.93-.098 5.896h13v3l-15-1z" fill="#deba36"/><path d="m802 212.75 2.945-.023c5.08.013 9.303.25 14.055 2.273v1l-1.833-.124c-2.763-.179-5.527-.34-8.292-.501l-2.883-.195c-5.224-.29-9.052-.12-13.992 1.82-2.555.195-2.555.195-4.875.125l-2.367-.055L783 217c5.09-5.09 12.294-4.303 19-4.25" fill="#e0c048"/><path d="M1136 404h3v4h3v2h-3v10h4v2c-2.375.125-2.375.125-5 0-2.634-2.634-2.414-4.205-2.687-7.875l-.262-3.18c-.045-2.59.163-4.5.949-6.945" fill="#d8d7d5"/><path d="M639 701h3v4h3v3h-3v10l3 1c-1.666.043-3.334.04-5 0-1.773-1.773-1.42-4.342-1.625-6.75-.095-1.047-.19-2.093-.29-3.172-.08-2.898.22-5.276.915-8.078" fill="#bcbaae"/><path d="M737 464c-7.03 7.37-15.306 11.875-25.617 12.305-4.138.055-8.252-.082-12.383-.305v-1l2.93-.113c7.804-.394 14.68-1.162 22.07-3.887l3-.875c2.72-1.53 3.037-3.236 4-6.125 2.49-1.245 3.41-.777 6 0" fill="#d4b43a"/><path d="m934 237 2 1a97 97 0 0 1 1.625 8l.395 2.422a116 116 0 0 1 1.293 17.016l.016 2.166c-.051 3.67-.24 5.264-2.329 8.396l-.168-2.611q-.314-4.856-.632-9.712l-.27-4.18c-.483-7.52-1.01-15.015-1.93-22.497" fill="#ceae36"/><path d="M729 376c8.17 4.085 12.44 11.757 16.313 19.688.761 2.562.605 3.834-.313 6.312v-3h-2v-4h-2l-2-6h-2l-1-6-1.812-.25c-2.817-.966-3.666-2.239-5.188-4.75z" fill="#d9b637"/><path d="M839 237c6.974 10.46 5.329 26.014 5 38h-1l-1-11h-1l-.184-3.43-.254-4.445-.119-2.262c-.159-4.063-.159-4.063-1.443-7.863a78 78 0 0 1-.062-4.625l.027-2.477z" fill="#c8a935"/><path d="M964 210c7.5.238 12.384 1.921 18 7 3.144 3.81 6.405 7.961 7 13l-2 2-.7-1.758c-3.23-7.736-6.454-12.858-14.296-16.43A90 90 0 0 0 964 211z" fill="#c1bfa9"/><path d="M895 701h3v4h3v2h-3v11l3 1c-1.666.043-3.334.04-5 0-1.851-1.851-1.43-4.818-1.625-7.312-.095-1.152-.19-2.303-.29-3.489-.072-2.72.07-4.646.915-7.199" fill="#bfbbac"/><path d="m835 614 1 2c-5.722 8.841-12.932 13.98-23 17-3 .188-3 .188-5 0 3-2 3-2 6.625-3l3.375-1 1-2c1.848-.633 1.848-.633 4.063-1.125l2.222-.508L827 625v-4h2l1-3 3-1z" fill="#dcbb38"/><path d="m416 407 2 3c-3.658 8.333-8.322 13.367-16.586 17.2-3.11 1.03-5.328.856-8.414-.2v-1l3.5-.687c8.211-2.119 12.902-6.091 17.371-13.227 1.255-2.174 1.255-2.174 2.129-5.086" fill="#cfcec4"/><path d="m1062 403 3 1-2 4h3v2h-3v12h-3c-.25-2.227-.474-4.457-.687-6.687l-.387-3.762c.08-3.85.808-5.505 3.074-8.551" fill="#d4d2c6"/><path d="M817 372v1c-.655-.01-1.31-.02-1.984-.032-3.006-.042-6.01-.067-9.016-.093l-3.121-.05c-4.638-.03-8.89.006-13.379 1.245-3.395.902-4.34.92-7.5-.07 11.035-5.237 23.368-5.877 35-2" fill="#d1b138"/><path d="M668 441c2.786 4.18 4 6.934 4 12l3 1c.913 2.253 1.458 4.517 2.059 6.871 1.192 2.697 2.263 3.045 4.941 4.129 2.75 2 2.75 2 5 4v2c-6.679-1.619-10.237-7.747-14.25-12.875-3.026-5.403-4.75-10.927-4.75-17.125" fill="#dab73a"/><path d="M629 452h25l-1 5h-2v-3h-20v2h-2z" fill="#c3a941"/><path d="M915 407h1c3.129 20.197 3.129 20.197 2 28l-3 2z" fill="#edc120"/><path d="M829 380c6.508 4.02 10.06 11.665 12.438 18.75.637 3.683.306 6.604-.438 10.25-2.051-3.482-2.568-6.773-3.125-10.75l-.508-3.547L837 392h-2c-3-5.75-3-5.75-3-8l-3-1z" fill="#ddb938"/><path d="M957 706c.08 2.771.14 5.54.188 8.313l.076 2.38.029 2.295.048 2.11c-.453 2.524-1.3 3.387-3.341 4.902-6.138.43-6.138.43-9-1l1-3 1 1q3.5.062 7 0c.8-3.287 1.097-4.71 0-8a100 100 0 0 1 1-6h-2v-2c2-1 2-1 4-1" fill="#d7d2bd"/><path d="M687 701h5v19h-3v-17h-2z" fill="#bebcb0"/><path d="m796 707 4 2v4h-12l3 4 8-1c-1.625 2.063-1.625 2.063-4 4-3.9-.16-5.731-.82-9-3-.408-2.712-.133-5.244 0-8h2v3l10-1z" fill="#d1cebf"/><path d="M521 706c1.5 1.938 1.5 1.938 2 4l-1 2h-10l2-5-2-1c3.18-1.59 5.624-.784 9 0" fill="#b2ae9a"/><path d="M420 616c1.625 2.437 2.921 4.78 4.25 7.375 3.77 6.79 8.386 9.947 15.75 12.625 2.779.691 2.779.691 5 1v1c-6.378.709-10.212-.528-15.594-4.016-4.784-3.945-9.523-9.653-10.406-15.984z" fill="#cccab2"/><path d="M792 529a1183 1183 0 0 1 9.063-.125l2.568-.05c8.283-.065 14.354 1.88 21.369 6.175v1h-9l1-3c-8.67-2.334-17.105-2.199-26-2z" fill="#edc222"/><path d="M588 705c10 0 10 0 13.125 2.188 1.997 2.995 2.377 4.301 1.875 7.812h-2l-2-6c-3.058-.544-5.888-1-9-1l-1 18h-1z" fill="#b1afa1"/><path d="M839 706c3 1 3 1 4.188 3.313C844 712 844 712 844 716h2l.375-2.187c.615-2.77 1.51-5.21 2.625-7.813h2c-.607 4.86-2.728 8.74-5 13h-3a742 742 0 0 1-2-4.812l-1.125-2.708C839 709 839 709 839 706" fill="#d4d0c1"/><path d="M857 705c5.415-.37 5.415-.37 8.375 1.5L867 708l-1 4h-10l1-4z" fill="#b6b1a2"/><path d="m928 456 2 4c-3.878 4.93-7.761 8.542-13 12 0-3.766.799-4.947 3-8a103 103 0 0 1 5.477-4.668c1.653-1.276 1.653-1.276 2.523-3.332" fill="#e5c02e"/><path d="M463 701h2c-.62 6.575-2.149 12.667-4 19h-3c-1.125-3.312-1.125-3.312-2-7l2-3 1 4z" fill="#bdb8a5"/><path d="m1004 429 2 2-1.574 1.031C996.433 437.586 992.863 443.513 991 453c-2-3-2-3-2-5.625 2.475-8.354 7.826-13.732 15-18.375" fill="#cacabc"/><path d="M556 316h24v2c-7.847 2.336-16.298 1.37-24-1z" fill="#c3a32a"/><path d="m445 210-1 2c-1.785.422-1.785.422-4.062.75-6.188 1.279-10.804 4.239-14.477 9.422a93 93 0 0 0-2.453 4.289L422 228h-2c2.066-7.89 6.329-11.916 13.035-16.02 3.998-1.994 7.533-2.08 11.965-1.98" fill="#cdcdc1"/><path d="m838 705 3 1h-2l1 5h-2l-1 6-1-2-3 2c-2.332.08-4.668.088-7 0l-1-4h11v-4h2z" fill="#4c493f"/><path d="M484 709h2v3h10v-3h2v4h-12l3 4 8-1c-2.074 2.458-3.315 3.846-6.5 4.563-2.5-.563-2.5-.563-4.812-2.688-1.923-3.275-2.035-5.143-1.688-8.875" fill="#d0ccbb"/><path d="m888 607 2.055.984c3.498 1.207 6.375 1.282 10.07 1.266l3.695.016c3.336-.021 3.336-.021 6.18-2.266-.932 2.331-1.571 3.72-3.703 5.11-2.861 1.109-5.232 1.227-8.297 1.265l-3.125.086c-3.542-.568-4.709-1.66-6.875-4.461z" fill="#e5be29"/><path d="M792 550q4.344-.04 8.688-.062l2.474-.026c8.725-.035 8.725-.035 11.838 1.088 1.18 1.707 1.18 1.707 1.875 3.813l.742 2.082c.43 2.36.125 3.845-.617 6.105l-.7-1.645-.987-2.168-.95-2.144c-1.803-2.702-3.407-3.7-6.363-5.043-3.248-.435-3.248-.435-6.625-.312l-3.414.011c-3.146.087-3.146.087-5.961 2.301z" fill="#cfac2b"/><path d="M773 463h2v2h4l1 3c4.556 2 9.1 2.493 14 3v2l3 1c-8.753.646-13.843-1.081-20.937-6.062C774 466 774 466 773 463" fill="#ebc330"/><path d="M1070 434h3v19h-3z" fill="#cccac2"/><path d="M1104 410h2v4l7 1v1h-8l2 3c3.105.318 5.017-.006 8-1l-2 4c-3.25.313-3.25.313-7 0-2.5-2.125-2.5-2.125-4-5 .306-5.306.306-5.306 2-7" fill="#d3d2cb"/><path d="m696 395 2 1-1.812 2.25c-6.693 10.3-5.85 23.935-6.188 35.75h-1c-.766-30.893-.766-30.893 5.11-37.3.623-.562 1.247-1.122 1.89-1.7" fill="#ecc637"/><path d="M667 246h3q.039 3.375.063 6.75l.035 3.797C670 260 670 260 669.5 261.959c-.523 2.133-.614 3.958-.598 6.15l.01 2.286.025 2.355.014 2.402q.02 2.925.049 5.848h-1c-.977-4.073-1.115-7.868-1.098-12.05l.005-1.997c.005-2.089.018-4.177.03-6.265q.009-2.135.014-4.268.017-5.21.049-10.42" fill="#e6b91b"/><path d="M800 710h1c.25 5.625.25 5.625-2 9l-2-1h-2c-2.5-.25-2.5-.25-5-1l-2-4h12z" fill="#605d52"/><path d="M813.25 607.375 815 608c-2.844 3.555-4.218 4.898-8.812 5.5-4.434-.27-8.13-1.76-12.188-3.5l1-2 2 1a73 73 0 0 0 4.875.188l2.617.042c3.358-.308 5.458-2.405 8.758-1.855" fill="#e7c12e"/><path d="M1093 408h8l-1 3-3 1-1 10h-3z" fill="#d1cfca"/><path d="m1085 408-2.5 1.625c-2.82 2.173-2.82 2.173-2.875 5.563.072 2.711.072 2.711 1.375 3.812 3.2.173 5.93-.09 9-1-1 2-1 2-3 4-2.894.562-4.995.334-8 0-2.536-3.805-2.595-6.54-2-11 2.04-3.436 4.209-3.307 8-3" fill="#e5e4dd"/><path d="M539 304c2.465 1.155 4.117 2.11 6.125 4 4.018 2.795 8.096 3.295 12.875 4v2l2 2c-7.061-.314-11.68-1.444-16.7-6.82A149 149 0 0 1 539 304" fill="#e4c030"/><path d="M650 454c2 3 2 3 1.75 4.918l-.75 2.27-.871 2.644c-6.523 18.306-6.523 18.306-9.129 23.168-.625-2.312-.625-2.312-1-5l2-3c.696-1.99 1.355-3.993 2-6q.995-2.689 2-5.375c1.651-4.503 2.941-8.95 4-13.625" fill="#e1be3b"/><path d="M664 709h2v3h10l1-3v4h-11l2 5 2.813-.937L677 715c-.562 1.938-.562 1.938-2 4-3.375 1.063-3.375 1.063-7 1-2.437-2.062-2.437-2.062-4-5-.25-3.312-.25-3.312 0-6" fill="#c8c4b5"/><path d="M869 622c2.915 1.074 4.778 1.778 7 4 1.956.827 1.956.827 4.188 1.5l2.414.77q4.681 1.425 9.398 2.73l-1 2c-8.918-.929-15.684-3.407-22-10z" fill="#d3b234"/><path d="m362 409 3 1-3 5 4 1h-3l1 3c3.343.074 5.804.065 9-1-1 3-1 3-3 4-3.437.313-3.437.313-7 0-2.675-2.244-2.959-3.595-3.312-7.062C360 412 360 412 362 409" fill="#d7d6d0"/><path d="M822 406h2v22l-2 1c-1.25-2.501-1.03-4.003-.879-6.79l.147-2.85.17-2.985.158-3.008q.195-3.683.404-7.367" fill="#f7c91c"/><path d="m876 217 2 1-2 3h-3l-3 9-5 1-1 4h-2c1.383-3.978 3.229-6.86 5.875-10.125l2.055-2.57c1.895-2.11 3.74-3.706 6.07-5.305" fill="#d7b330"/><path d="M870 705h2v2l5-2v3l-3 1-1 11-3-1z" fill="#bdb7a6"/><path d="M587 257h1c.03 3.167.047 6.333.063 9.5l.025 2.688c.029 7.884-.054 14.796-4.088 21.812l-2-1 .621-2.266.817-2.984.808-2.953L585 279l.527-1.904c.49-2.173.678-4.2.79-6.424l.126-2.422.12-2.5.13-2.547q.158-3.1.307-6.203" fill="#e1bb33"/><path d="M809 234c3.188 2 3.188 2 5 4l-1 2-2.125-1.473c-4.776-2.537-9.598-2.193-14.875-1.527-3.601 2.058-5.685 4.589-8 8 .48-4.32 1.615-6.273 5-9 5.259-2.495 10.268-2.739 16-2" fill="#c7a836"/><path d="M826 311c-8.391 6.763-17.545 7.598-28 7v-1l17-2v-2c3.823-1.423 6.913-2.24 11-2" fill="#dab738"/><path d="m723 275 2 2c-.429 5.466-1.007 12.007-5 16h-3l-1 2-2-2 2.313-2.062c4.315-4.718 5.921-9.66 6.687-15.938" fill="#d7b330"/><path d="M677 709h1v8l-1-2-1.687 1.5c-2.695 1.748-4.167 1.762-7.313 1.5l-2-5h11z" fill="#444139"/><path d="M623 702h2v3h4v2h-4v11l4 1c-1.666.043-3.334.04-5 0-1-1-1-1-1.098-3.504l.035-3.058.028-3.067L623 707h-2v-2h2z" fill="#d9d7c9"/><path d="m896.688 548.938 3.011.027L902 549v1l-1.758.078c-5.434.395-9.113 1.08-13.242 4.922-2.544 4.362-4.351 8.97-5 14h-1c-.379-5.93.894-10.472 3-16h3l1-3c3.15-1.05 5.388-1.101 8.688-1.062" fill="#e6c237"/><path d="m838 291 2 1c-3.724 8.024-6.552 14.035-14 19 .34-3.151.58-4.608 2.938-6.812C831 303 831 303 833 303l1-6h2z" fill="#e3bf37"/><path d="M820 216c8.96 3.773 15.052 10.073 19 19-.91 2.203-.91 2.203-2 4l-.805-2.047-1.07-2.703-1.055-2.672c-1.704-4.645-1.704-4.645-5.195-7.828L827 223v-2l-2.937-.812L821 219z" fill="#dbba3e"/><path d="M867 710h1v7l-1-2c-3.118.646-3.118.646-4 3-2.375.125-2.375.125-5 0l-2-2v-3h11z" fill="#413f38"/><path d="M523 709h1v8l-1-2-1.687 1.5c-2.695 1.748-4.167 1.762-7.313 1.5l-1-5h10z" fill="#3e3c33"/><path d="m764 601 2 4 1.625 3.063C769 611 769 611 769 614h2c1.438 1.898 1.438 1.898 3 4.375 1.571 2.475 2.924 4.549 5 6.625-3 0-3 0-4.648-1.363-5.629-6.355-10.876-13.821-10.352-22.637" fill="#e0bd3d"/><path d="m566.688 212.938 2.126.013q2.594.02 5.186.049v1l-3.035.332c-8.3.787-8.3.787-16.153 3.356-3.105 1.449-3.713 1.3-6.812.312q1.904-.972 3.813-1.937l2.144-1.09c4.3-2.047 8.071-2.092 12.73-2.036" fill="#debd3c"/><path d="M501 705h7v3h-4l-1 11h-2z" fill="#c7c1ae"/><path d="M786 589h1l.297 2.195c.935 6.044 2.05 9.935 5.703 14.805v3c-3.265-1.804-4.89-2.834-7-6-.195-3.355-.195-3.355-.125-7.187l.055-3.856z" fill="#dbb731"/><path d="m885 449 2 1v2c7.593 1.96 14.574 1.16 22-1-2.24 2.71-3.44 3.89-6.945 4.574l-3.18.113c-4.091.055-4.091.055-7.875 1.313l-3-1v-2l-3-2z" fill="#edc424"/><path d="m707.813 390.938 3.519.027L714 391l2 4-1.687-.492c-2.505-.55-4.75-.64-7.313-.633l-2.562-.008c-2.285.125-4.248.494-6.438 1.133v-2l-2-1c3.998-.956 7.708-1.104 11.813-1.062" fill="#eec72d"/><path d="m646 308 3 1a2803 2803 0 0 1-3.875 10.875l-1.105 3.129-1.075 2.988-.984 2.761C641 331 641 331 639 333c-.49-4.89.648-7.554 2.91-11.7 2-4.222 2.992-8.774 4.09-13.3" fill="#dfbc37"/><path d="M870 227h2v5h-3l-1-2h2zm-5 4 3 1-1.375 2c-1.978 3.652-2.733 6.95-3.625 11-1.804-2.76-2.013-3.89-1.625-7.25L862 235h2z" fill="#f4c61e"/><path d="M764 287c2.35 2.35 2.731 3.957 3.625 7.125.26.91.52 1.82.79 2.758L769 299h3c1.75 2.25 1.75 2.25 3 5-.422 2.172-.422 2.172-1 4-4.99-5.955-10-12.944-10-21" fill="#dcb936"/><path d="M914 258h1c.198 3.208.382 6.416.563 9.625l.17 2.738c.258 4.718.31 8.986-.733 13.637h-2v2h-2l.96-3.871c1.127-5.067 1.472-10.016 1.665-15.192l.117-2.623q.138-3.156.258-6.314" fill="#d7b331"/><path d="M347 439h3v14h-3z" fill="#c2c1ba"/><path d="M323 439h3v14h-3z" fill="#c4c3bd"/><path d="M1090 413h1v7l-1.937-.562L1087 419l-1 1c-1.666.04-3.334.043-5 0l-2-4h11z" fill="#3c3b35"/><path d="m891.133 369.902 2.441.01 2.551.026 2.574.013q3.15.02 6.301.049v1l-3.184.078c-10.42.347-10.42.347-20.02 4.18-2.293.947-3.498.545-5.796-.258l1.898-.84 2.477-1.098 2.46-1.09c3.11-1.397 4.87-2.094 8.298-2.07" fill="#c3a437"/><path d="M781 718c-.875 4.875-.875 4.875-2 6-5.412.47-5.412.47-7.875-1.5L770 721h2l1-2c2.699-.574 5.238-1 8-1" fill="#3b3932"/><path d="M334 408h2v2l2 1-1 11h-3z" fill="#cbcbc8"/><path d="M716 395c2.908.565 4.558 1.36 6.258 3.82 2.826 5.673 3.079 10.034 1.742 16.18h-1l-.516-2.852c-1.692-9.27-1.692-9.27-6.484-17.148" fill="#e2be3a"/><path d="M924 380c5.712 3.985 8.423 8.557 11 15v2h-3l-1-7h-3l-.875-2.75c-.89-2.572-1.84-4.863-3.125-7.25" fill="#d8b736"/><path d="m694 291 2.688 1.5c5.489 2.416 11.443 1.738 17.312 1.5v2c-3.223 1.074-5.615 1.133-9 1.125l-3.187.008C699 297 699 297 696 296c-1.187-2.562-1.187-2.562-2-5" fill="#e3bf34"/><path d="M723 415h1v19h2c-.787 3.41-1.871 6.689-3 10l-2-1 .48-2.155c.516-2.824.724-5.498.836-8.365l.127-3.095.12-3.197.13-3.256q.159-3.966.307-7.932" fill="#bc9c2b"/><path d="M1119 408h2c1.382 2.765 1.095 5.046 1.063 8.125l-.028 3.32L1122 422h-3z" fill="#c7c5bc"/><path d="M531 280c3.25 3.25 3.322 7.625 4.219 12.031.54 3.063.54 3.063 2.781 4.969a90 90 0 0 1 1 6c-4.837-4.003-6.578-8.92-7.406-14.965-.248-2.678-.45-5.35-.594-8.035" fill="#e6bf31"/><path d="m805.813 214.313 2.119.146c4.07.3 8.055.804 12.068 1.541l1 3-1.625-.402c-8.074-1.82-16.135-2.21-24.375-2.598 3.785-2.524 6.485-2.052 10.813-1.687" fill="#efc527"/><path d="M719 701h2v6l2 1-1 1a104 104 0 0 0-.562 5.063l-.254 2.785L721 719h-2z" fill="#d0ccba"/><path d="M1034 435h3c.7 1.745 1.385 3.496 2.063 5.25l1.16 2.953c.788 2.837.801 4.091-.223 6.797-2-1-2-1-3.07-3.652l-1.055-3.286-1.07-3.277C1034 437 1034 437 1034 435" fill="#d4d4cc"/><path d="m698 372-7 1v2c-3 2-3 2-6 2l-1 3-3 2-3-1c14.042-11.622 14.042-11.622 20-9" fill="#cdad3a"/><path d="M442 702h2c2.257 5.36 3.363 9.198 3 15h2v2h-3q-1.005-3.687-2-7.375l-.578-2.117C442 704.227 442 704.227 442 702" fill="#d4d1bf"/><path d="M827 705c6.462.462 6.462.462 9 3v5h-11v-1h9l-2-4c-3.562-.819-3.562-.819-7-1z" fill="#d2d1c3"/><path d="m773 538 1 3c-.96 1.832-.96 1.832-2.375 3.813-2.267 3.396-3.314 6.044-3.625 10.187l-4 1c1.86-6.898 4.795-12.244 9-18" fill="#d2b136"/><path d="M1105 416h11v5l-2-1 1-2-3 2c-2.687.125-2.687.125-5 0z" fill="#3f3d37"/><path d="M363 416h11l-1 4v-2l-3 2c-3.187.125-3.187.125-6 0z" fill="#3b3a35"/><path d="m1035 404 4.875-.125 2.742-.07C1045 404 1045 404 1047 406c-3 1-3 1-10 0l-1 16h-1z" fill="#cbcac2"/><path d="M862 393h1c.982 4.053 1.082 7.839 1 12l-5 2c.715-4.764 1.795-9.342 3-14" fill="#f3c51f"/><path d="M582 312h8c-4.538 3.727-7.95 4.132-13.75 4.063l-2.984-.028L571 316c2.2-2.2 2.993-2.57 6-3 2.75.438 2.75.438 5 1z" fill="#f0c418"/><path d="M955 718c.043 1.666.04 3.334 0 5-1 1-1 1-4.562 1.063L947 724l-1-2c1-2 1-2 3.938-3.125C953 718 953 718 955 718" fill="#333129"/><path d="M746 710h1v9c-2.957 1.478-5.742 1.06-9 1l-2-4 2-2 2 3 5-1z" fill="#b1ae9d"/><path d="M341 451c-.875 4.875-.875 4.875-2 6-2 .04-4 .043-6 0v-2l-3-1q2.186-.755 4.375-1.5l2.46-.844C339 451 339 451 341 451" fill="#353431"/><path d="M911 443h2c-.473 4.255-2.964 6.192-6 9l-1 1a153 153 0 0 1-6.562.063l-3.63-.028L893 453v-1l2.668-.191c6.616-.454 6.616-.454 12.238-3.5 1.451-2.126 1.451-2.126 3.094-5.309" fill="#c7a935"/><path d="M787 281c1.574 2.36 2.706 4.45 3.875 7 1.57 3.211 2.943 5.182 6.125 7-3.468-.297-4.985-.988-7.75-3.187-2.485-3.106-3.075-4.88-3.25-8.813z" fill="#d4b134"/><path d="M677 225h2c1.354 2.709 1.065 5.01 1 8h-4l-2 2c.75-6.625.75-6.625 3-10" fill="#e8bf2b"/><path d="m803 711 8 4-1 3c-4.75-.875-4.75-.875-7-2l1 3h-2v-4h2z" fill="#48463d"/><path d="M543 705h3c-1.418 4.472-3.113 8.711-5 13l-3-1c1.59-4.035 3.282-8.018 5-12" fill="#adaa9b"/><path d="M700 453h15l1 2c-1.915.223-3.832.428-5.75.625l-3.234.352c-3.054.023-4.478-.363-7.016-1.977z" fill="#f0c92e"/><path d="m1052 442 3 1c1.188 3.563 1.188 3.563 2 7l6 1c-2 2-2 2-4.937 2.313C1055 453 1055 453 1053.125 452c-1.83-3.253-1.306-6.314-1.125-10" fill="#b8b7ac"/><path d="M393 427c6.945.177 11.423 1.882 17 6l-2 2-3-1.875c-3.897-2.248-7.612-3.201-12-4.125z" fill="#d0d0ca"/><path d="M910 286c.91 3.07 1.173 5.8 1 9-1 1-1 1-2.848 1.098L902 296v-2l2.313-1.312c3.006-1.888 4.086-3.57 5.687-6.688" fill="#d7b331"/><path d="M692 215v2h-2v2c-2.117 1.543-2.117 1.543-4.875 3.188l-2.742 1.667L680 225l-2-1a672 672 0 0 1 3.75-3.375l2.11-1.898c2.584-2.085 4.754-3.727 8.14-3.727" fill="#d6b334"/><path d="M835 544c3.645 4.556 6.947 10.23 7.031 16.207-.281 1.918-.281 1.918-1.031 4.793h-1l-.332-2.195c-.902-5.5-2.013-9.857-4.668-14.805z" fill="#d4b339"/><path d="m329 442 3 1 1 8h6l-1 2c-5.422.482-5.422.482-7.875-1.562-1.495-3.24-1.328-5.914-1.125-9.438" fill="#c6c6bf"/><path d="m1005 424 11 3v2c-3.674 1.176-7.17 1.074-11 1l1-3-2-2z" fill="#bebdb3"/><path d="M594 220c5.699 2.405 8.861 7.516 11.375 13l.625 2-2 2-1.062-3.562c-1.602-4.379-4.07-6.928-7.512-9.993C594 222 594 222 594 220" fill="#dbb838"/><path d="m790 446 2.188 2.5c4.154 3.535 8.681 2.93 13.886 2.773 2.986-.167 2.986-.167 5.926-1.273v2c-3.13 1.565-6.443 1.226-9.875 1.25-1.08.03-1.08.03-2.184.063-3.198.023-5.571-.126-8.449-1.579C790 450 790 450 790 446" fill="#c4a634"/><path d="M1118 439h2c.125 4.75.125 4.75-1 7l-7-2 1-4 1.938.563L1117 441l1-1z" fill="#42413c"/><path d="M667 416h1c.225 3.79.427 7.583.625 11.375l.195 3.273.157 3.125.158 2.889C669 439 669 439 667 441c-1.016-5.608-.96-10.765-.562-16.437l.158-2.506q.194-3.03.404-6.057" fill="#dbb325"/><path d="M909 398c2 0 2 0 4.11 2.043 2.365 3.7 2.303 5.919 2.14 10.27l-.11 3.8L915 417h-1l-.332-2.379c-.906-6.003-1.949-11.183-4.668-16.621" fill="#e2bd38"/><path d="m775 308 6 2v2l6 1v2h3v2c-6.104-1.272-10.342-3.85-15-8z" fill="#cdad35"/><path d="m896.25 234.938 3.266.027L902 235v1l-2.23.043c-6.367.238-6.367.238-11.77 3.332L886 242l-3 3c.551-3.306 1.1-6.2 3-9 3.384-1.217 6.686-1.101 10.25-1.062" fill="#c9a930"/><path d="M757 99h2c-1.875 3.875-1.875 3.875-3 5l16 1 1-3v4h-19c1-4 1-4 3-7" fill="#404040"/><path d="M549 709h1l1 7 7 2-1 2c-5.368.358-5.368.358-7.875-1.062-1.724-2.97-1.373-5.585-1.125-8.938z" fill="#cecbbc"/><path d="M317 440h1c.108 1.603.186 3.207.25 4.813l.14 2.707c-.39 2.48-.39 2.48-2.109 4.293-2.594 1.35-4.13 1.502-7.031 1.375l-2.422-.083L305 453c3.286-2.19 6.219-2.95 10-4 1.497-1.497 1.332-2.988 1.563-5.062z" fill="#c3c2be"/><path d="M350 408c4.75.75 4.75.75 7 3 .195 2.602.195 2.602.125 5.625l-.055 3.04L357 422h-2l-.078-2.047c-.265-5.71-.265-5.71-2.985-10.578z" fill="#dfdfdb"/><path d="M691 275h1l.332 1.977c1.183 6.518 2.412 12.518 7.668 17.023-3.282-.566-4.892-1.413-7-4-2.056-3.33-2.217-5.871-2.125-9.75l.055-2.984z" fill="#cfaf38"/><path d="M798 214c-3.769 2.512-6.262 3.127-10.687 3.063l-2.45-.028L783 217c4.447-4.447 9.135-4.173 15-3" fill="#d7b83b"/><path d="M859.125 705.875 862 706l-1.875.75c-2.584 1.26-2.584 1.26-4.125 5.25l10-1 1 2h-13c0-6.92 0-6.92 5.125-7.125" fill="#dcd9cb"/><path d="M1096 441h6l2 4h-9z" fill="#33322e"/><path d="M338 438c1.813 1.5 1.813 1.5 3 3-2.709 1.354-5.01 1.065-8 1l-2 5h-1c-.362-5.429-.362-5.429 1.188-7.875 2.467-1.532 3.957-1.553 6.812-1.125" fill="#d1d1cb"/><path d="M318 413h1l2 6c3.629.151 3.629.151 7-1l1 4q-2.47.039-4.937.063l-2.778.035C319 422 319 422 318 421c-.141-2.67-.042-5.324 0-8" fill="#cdccc9"/><path d="M809 392h6c3.444 9.41 3.444 9.41 3 14-2-3-2-3-2.937-6-1.037-2.927-1.74-4.064-4.063-6z" fill="#e9c12b"/><path d="m928 302 2 1c-3.844 5.012-7.337 8.169-13 11v-3a393 393 0 0 1 5-3 149 149 0 0 0 4-5z" fill="#dbb733"/><path d="m886 394 3 1-1.023 1.434c-3.41 5.054-5.045 9.555-5.977 15.566h-1c-.557-6.407 1.251-11.237 4-17z" fill="#dcb934"/><path d="M628 297h1q.08 3.688.125 7.375c.017.699.034 1.397.05 2.117.018 1.837-.072 3.674-.175 5.508l-2 2c-1.325-6.096-.466-10.978 1-17" fill="#cfac31"/><path d="M645 297h5l-1 11h-2l-.184-1.898-.254-2.477c-.08-.812-.162-1.624-.246-2.46-.207-2.208-.207-2.208-1.316-4.165" fill="#f4c61f"/><path d="m810 713 3 1-1 5-7 1-2-4 7 1z" fill="#cfccbc"/><path d="M511 707h3l-2 5h10l1-2v3h-12l-1 2c-.125-5.75-.125-5.75 1-8" fill="#d6d4c5"/><path d="m988 613 2 1c-1.527 6.395-2.813 10.794-8 15l.867-2.137a310 310 0 0 0 3.258-8.676l1.07-2.957z" fill="#cecbaf"/><path d="M1087 439h2v14h-2c-1.031-3.27-.964-5.86-.562-9.25l.308-2.703z" fill="#e8e8e2"/><path d="M818 434h2c-.369 2.296-.77 4.587-1.187 6.875l-.668 3.867C817 448 817 448 814.387 449.445L812 450l1.059-2.23 1.379-2.957 1.37-2.918c1.096-2.661 1.742-5.063 2.192-7.895" fill="#d9b636"/><path d="M1081 410h5l2 4h-9z" fill="#34332f"/><path d="M865 302c1.938.313 1.938.313 4 1l1 3c1.86 1.885 1.86 1.885 4.063 3.688l2.222 1.886L878 313c-3.907 0-4.77-1.232-7.625-3.812l-2.414-2.145C866 305 866 305 865 302" fill="#d8b637"/><path d="M893 214c-3.404 2.27-5.165 2.365-9.187 2.625l-3.293.227L878 217c4.447-4.447 9.135-4.173 15-3" fill="#d5b439"/><path d="M575 706h2v13l-4-2 1-1c.233-1.682.413-3.371.563-5.062l.253-2.786z" fill="#e7e4d5"/><path d="M890 705h2c-.665 4.389-2.188 7.981-4 12l-3-2z" fill="#c3bfad"/><path d="m788 553 4 1c-2.75 5.75-2.75 5.75-5 8a89 89 0 0 0-2 4c.48-4.714.968-8.666 3-13" fill="#e6be24"/><path d="M673 388c1.532 4.084.63 7.795 0 12l-4-1c.783-3.916 2.392-7.364 4-11" fill="#d4b12f"/><path d="M917 312v2c-9.41 1.517-9.41 1.517-14-1v-1c5.021-.78 8.977-1.13 14 0" fill="#f5c81f"/><path d="m884 291 2.813 1.938c4.78 2.783 9.764 2.866 15.187 3.062v1q-3.687.04-7.375.063l-2.117.025c-5.281.025-5.281.025-7.508-1.088-.625-2.562-.625-2.562-1-5" fill="#eec42b"/><path d="M719 240h2c3.78 5.954 4.468 10.11 3 17h-1l-.367-2.195c-.882-5.09-1.797-9.954-3.633-14.805" fill="#dbb633"/><path d="M702 234c5.447-.097 10.639-.129 16 1l1 5-3.437-1.937c-4.465-2.26-8.609-2.834-13.563-3.063z" fill="#e1be37"/><path d="m753 706 1 2h2l-1 12h-2z" fill="#d7d2bf"/><path d="M822 576h2v12l-2 1c-1.297-4.61-.711-8.338 0-13" fill="#f8ca1d"/><path d="M773 463h2v2h4l1 3c3.008 1.225 3.008 1.225 6 2l-4 2a396 396 0 0 1-3.937-2.812l-2.215-1.583C774 466 774 466 773 463" fill="#d8b435"/><path d="M1095 447h8l-1 4h-5z" fill="#33322e"/><path d="M1065 439h1v14h-2v-2l-2-1 1-1c.393-1.679.74-3.369 1.063-5.062l.535-2.786z" fill="#eaeae6"/><path d="M785 427h1l.367 2.633.508 3.492.492 3.445c.607 3.29 1.496 6.288 2.633 9.43h-3c-1.95-6.46-2.223-12.272-2-19" fill="#e2c040"/><path d="M364 410h5l2 4h-8zm743 0h5l1 4h-8z" fill="#2d2c29"/><path d="m790 293 3.313.938c5.17 1.308 10.38 1.691 15.687 2.062v1c-2.605.08-5.207.14-7.812.188l-2.237.076c-5.482.074-5.482.074-7.963-1.713C790 294 790 294 790 293" fill="#efc52e"/><path d="M560 235h14v1l-2.012.113c-5.174.386-8.622.886-12.988 3.887l-2-1v-2h3z" fill="#c7a528"/><path d="M664 709h2v3h10l1-3v4h-11l-1 3c-1-1-1-1-1.062-4.062z" fill="#dddbce"/><path d="m858 707 6 1v3h-8z" fill="#34332e"/><path d="m791 707 6 1v3h-8z" fill="#302f2a"/><path d="M532 705h3l3 9-3 2z" fill="#b7b3a3"/><path d="M463 701h2c-.48 4.714-.968 8.666-3 13h-1q.212-2.408.438-4.812c.08-.894.162-1.787.246-2.708C462 704 462 704 463 701" fill="#d1ccb8"/><path d="m1079 418 3.25.563c3.154.367 4.848.482 7.75-.563-1 2-1 2-3 4-2.754.37-5.204.183-8 0l-1-2z" fill="#d1d0ca"/><path d="M817 373c5.027.457 8.149 2.992 12 6-3 1-3 1-5.687-.312L821 377v-2l-4-1z" fill="#e2c03c"/><path d="M909 372c6.165.316 10.173 3.492 15 7-3.648 0-4.912-1.133-8-3l-3.25-1.062C910 374 910 374 909 372" fill="#e0bf41"/><path d="m773 224 1 2c-1.215 2.602-1.215 2.602-2.937 5.625l-1.715 3.04L768 237h-2c1.412-5.262 3.749-8.722 7-13" fill="#d2b037"/><path d="M789 714h8l-2 4-5-1z" fill="#2f2e2a"/><path d="m771 706 3 1-2 3a128 128 0 0 0-1 7l-2-1c-.195-6.055-.195-6.055 0-8z" fill="#d6d2c1"/><path d="m806 707 8 1v2h-3v2l-5-1z" fill="#424038"/><path d="m669 707 5 1 1 3h-8z" fill="#2a2926"/><path d="m515 707 5 1 1 3h-8z" fill="#2a2925"/><path d="m489 707 5 1 1 3h-8z" fill="#2e2d28"/><path d="M865 616h2v2h2v-2h3l-1 6c-1.875-.187-1.875-.187-4-1-1.25-2.562-1.25-2.562-2-5" fill="#e8c12c"/><path d="M407 422c-1 3-1 3-4.187 4.75-3.55 1.415-6.092 1.248-9.813.25v-1l3.75-.875c3.441-.851 6.805-3.125 10.25-3.125" fill="#bcbbb4"/><path d="M1136 404h3v4h-2v12h-1a757 757 0 0 1-.562-5.75l-.317-3.234c-.107-2.657.06-4.516.879-7.016" fill="#adaca6"/><path d="m828 707 5 1 1 3h-8z" fill="#2e2d28"/><path d="M775 379h2c0 3 0 3-2.437 5.563L772 387l-1 2h-2c1.367-3.987 3.152-6.885 6-10" fill="#cead36"/><path d="M869 380c1 3 1 3-.312 5.688L867 388h-2l-1 5h-2c1.412-5.262 3.749-8.722 7-13" fill="#d1b036"/><path d="m408 88 2 1-10 10c0-4.322 2.15-5.884 5-9z" fill="#cecece"/><path d="m926 619 2 2-6 5-2-1c1.049-2.622 1.65-3.794 4.125-5.25z" fill="#d7b226"/><path d="M366 440c3.27.564 4.826 1.5 7 4-2.312.625-2.312.625-5 1l-3-2z" fill="#383834"/><path d="M303 404c6.625-.25 6.625-.25 10 2v2l-11-2z" fill="#bdbdba"/><path d="M667 276h1l1 10h2v7c-3.484-5.225-4.31-10.813-4-17" fill="#e6c23f"/><path d="M798 234c9.996-.63 9.996-.63 14.188 2l1.812 2-1 2-1.875-1.375c-4.218-2.193-8.465-2.856-13.125-3.625z" fill="#debc3a"/><path d="m879 705 3 1c.95 2.066.95 2.066 1.688 4.563.25.826.502 1.652.761 2.503L885 715h-3z" fill="#c6c2b0"/><path d="M893 550c2.082-.108 4.166-.186 6.25-.25l3.516-.14c3.81.46 4.89 1.441 7.234 4.39-3 0-3 0-6-2-2.739-.458-2.739-.458-5.687-.625l-3.012-.227L893 551z" fill="#c1a230"/><path d="m371 448 2 4c-2.709 1.354-5.01 1.065-8 1l-2-4 8 2z" fill="#c8c8c3"/><path d="M1047 435h3l-3 9c-2-4-2-4-1.125-6.75z" fill="#cfcec6"/><path d="m362 409 3 1-3 5 4 1-6 2c-.25-5.625-.25-5.625 2-9" fill="#e6e6e2"/><path d="m301 406 3 1q.514 1.995 1 4l3 2c-1.812.688-1.812.688-4 1-1.75-1.125-1.75-1.125-3-3-.187-2.687-.187-2.687 0-5" fill="#ccccca"/><path d="M826 311c-3.423 3.15-6.443 3.562-11 4v-2c3.823-1.423 6.913-2.24 11-2" fill="#e7c131"/><path d="m705.188 234.938 3.292.027L711 235v1l-2.012.113c-5.058.377-8.83.7-12.988 3.887v-4c3.285-1.095 5.737-1.1 9.188-1.062" fill="#c9a931"/><path d="M964 210c9.595.595 9.595.595 13 4-3.708 1.236-4.675.568-8.187-.937l-2.731-1.153L964 211z" fill="#babab2"/><path d="m839 706 3 1c1.188 3.563 1.188 3.563 2 7l-4-1z" fill="#c0bdab"/><path d="M765 555h2l1 8h-3a177 177 0 0 1-1-7z" fill="#f6ca2a"/><path d="M810 552c4 0 4 0 5.688 1 2.068 3.152 2.006 6.27 2.312 10a766 766 0 0 1-4-6.062c-1.846-2.909-1.846-2.909-4-4.938" fill="#ddbc3b"/><path d="M766 237h2v10h-2q-.29-2.218-.562-4.437l-.317-2.497L765 238z" fill="#f3c92a"/><path d="m781 217 2 1-5 6-4-1z" fill="#d4b137"/><path d="M878 217h6c-3 2-3 2-6 2l-2 4h-3v-2h3z" fill="#f2c522"/><path d="M590 710h1l2 9h-2v7h-1z" fill="#b5b3a7"/><path d="M973 636c-3.445 2.296-5.938 2.54-10 3l1-3c5.625-1.125 5.625-1.125 9 0" fill="#b8b49b"/><path d="M687 471c7.508.615 7.508.615 10 2.563l1 1.437c-7.508-.615-7.508-.615-10-2.562z" fill="#ceb03d"/><path d="M330 455h3v2h5l1 3c-5.5.367-5.5.367-7.875-1.375C330 457 330 457 330 455" fill="#b2b1aa"/><path d="M355 440h1l1 10 3 1v2l-5-1z" fill="#e9e9e8"/><path d="M768 389c.563 1.938.563 1.938 1 4l-1 1c-.28 2.059-.447 4.117-.621 6.188L767 402l-2 1c.114-1.772.242-3.542.375-5.312.07-.987.14-1.973.21-2.989C766 392 766 392 768 389" fill="#e1ba30"/><path d="m811 292 3 1c-4.854 4.017-10.05 3.281-16 3v-1l2.082-.148 2.73-.227c.894-.07 1.787-.14 2.708-.21 2.724-.281 2.724-.281 5.48-2.415" fill="#d7b743"/><path d="M814 240h3c1.452 4.537 2.235 8.18 2 13h-1l-.621-2.082-.817-2.73-.808-2.708A216 216 0 0 0 814 240" fill="#e0bb3a"/><path d="m749 89 2 1-8 8-1-2c2.22-2.908 3.93-4.953 7-7" fill="#cdcdcd"/><path d="M725.625 706.875 728 707c-3.75 3-3.75 3-6 3v9h-1a365 365 0 0 1-.125-4.875l-.07-2.742c.29-3.538 1.314-4.341 4.82-4.508" fill="#6d695a"/><path d="M774 615c2 1 2 1 3.063 3.938L778 622l1 2c-3.83-1.453-5.12-3.429-7-7z" fill="#f2c61d"/><path d="M879 471c5.415-.37 5.415-.37 8.375 1.5L889 474c-6.523.37-6.523.37-8.937-1.5z" fill="#e8c239"/><path d="m317 410 3 1-2 9c-2-2-2-2-2.187-5 .187-3 .187-3 1.187-5" fill="#e2e1de"/><path d="M1104 410h2v4l7 1v1c-7.75.125-7.75.125-10-1z" fill="#e5e5e2"/><path d="M716 715c-1.75 3.875-1.75 3.875-4 5-2 .04-4 .043-6 0 7.5-5 7.5-5 10-5" fill="#b8b4a3"/><path d="M1106 450c-1.062 1.5-1.062 1.5-3 3-3.687.188-3.687.188-7 0 3.156-3.156 5.69-4.437 10-3" fill="#d8d8d3"/><path d="m1107 445 1 3 3 1h-2l-1 2-5-2v-2h4z" fill="#44423a"/><path d="m1047 416 2 3c-1.562 1.563-1.562 1.563-4 3-3.75-.312-3.75-.312-7-1v-1l3.375-.312L1045 419z" fill="#cecbbd"/><path d="M307 413c4.875.875 4.875.875 6 2 .04 1.666.043 3.334 0 5h-2l-.312-1.812c-.777-2.47-1.759-3.51-3.688-5.188" fill="#dededa"/><path d="M350.563 409.938 353 410l-1.937.938c-3.16 3.16-2.882 6.745-3.063 11.062h-1a920 920 0 0 1-.062-5.437l-.036-3.06c.133-3.412.24-3.482 3.66-3.565" fill="#353431"/><path d="M723 403c2.236 3.353 2.173 3.907 1.625 7.688l-.336 2.449L724 415h-1a431 431 0 0 1-.562-4.312l-.317-2.426C722 406 722 406 723 403" fill="#dcb62e"/><path d="M702 392h13l1 3-14-2z" fill="#e3c240"/><path d="m870 382 1 3c-1.404 2.264-3.197 4.02-5 6l-1-3h2l.375-1.875C868 384 868 384 870 382" fill="#ebbe1a"/><path d="M680 308c3.588 1.333 6.836 2.83 10 5v2c-4.435-1.394-6.874-3.606-10-7" fill="#d6b438"/><path d="M901 233c4.833.414 6.827 2.464 10 6a260 260 0 0 1-4.437-1.312l-2.497-.739L902 236z" fill="#eac021"/><path d="M850 705h2v4h2v2l-5 2z" fill="#47453c"/><path d="m773 705 8 1c-2 2-2 2-4.625 2.125L774 708z" fill="#ada996"/><path d="m643 476 2 1-3 10-2-2c.438-3.173 1.774-6.057 3-9" fill="#d7b536"/><path d="M416 444h2c.625 2.813.625 2.813 1 6l-2 3z" fill="#c1c0b5"/><path d="M1034 435h3l2 7h-3z" fill="#ccccc4"/><path d="M557.188 239.375 559 240l-6 5-1-4c3-2 3-2 5.188-1.625" fill="#f1c61c"/><path d="M599 227c2.526 2.363 3.888 3.665 5 7l-4 1z" fill="#f2c51f"/><path d="M975 214c3.356.6 5.378 1.846 8 4l-1 3a858 858 0 0 1-3.5-2.937l-1.969-1.653L975 215z" fill="#cbcbc0"/><path d="M541 711h2l-2 7-3-1c1.875-4.875 1.875-4.875 3-6" fill="#bdb9a7"/><path d="m853 711 1 2h2l2 5h-3c-2-3-2-3-2-7" fill="#bfbaaa"/><path d="M802 708h1l1 7h-2v2l-2-1z" fill="#292825"/><path d="M736 708h2l-1 8h-2q-.062-3.5 0-7z" fill="#d5d1c0"/><path d="M707 705c3.375.25 3.375.25 7 1 1.438 2.063 1.438 2.063 2 4l-5-2v-2z" fill="#c1bdab"/><path d="M596.688 705.313 600 706c-3.644 2.43-5.712 2.162-10 2 2.107-3.099 2.82-3.015 6.688-2.687" fill="#b8b4a5"/><path d="m720 443 3 1c-.312 1.938-.312 1.938-1 4l-3 1z" fill="#ddb92e"/><path d="M669 438h2v9c-1.947-2.92-2.552-4.593-3-8z" fill="#f4c928"/><path d="M1095 408h6l-1 3c-2.062.688-2.062.688-4 1z" fill="#c2c1bb"/><path d="M363 408c3.375-.187 3.375-.187 7 0l2 3c-3.38 0-5.835-.875-9-2z" fill="#c7c6c2"/><path d="M764 282c2.063 2.188 2.063 2.188 4 5-.25 2.813-.25 2.813-1 5-2.296-3.445-2.54-5.938-3-10" fill="#f3c724"/><path d="M670 281c2 2 2 2 2.195 4.164l-.07 2.461-.055 2.477L672 292h-1v-6h-2z" fill="#f5c81f"/><path d="M419 228h2l-1 9-2-2c.375-3.625.375-3.625 1-7" fill="#c9c4a7"/></svg>